<?xml version="1.0" encoding="UTF-8"?>
<svg id="Capa_1" data-name="Capa 1" xmlns="http://www.w3.org/2000/svg" viewBox="0 0 1080 1080">
  <defs>
    <style>
      .cls-1 {
        fill: #fff;
      }

      .cls-2 {
        fill: none;
        stroke: #157633;
        stroke-miterlimit: 10;
      }

      .cls-3 {
        fill: #599332;
      }

      .cls-4 {
        fill: #157633;
      }
    </style>
  </defs>
  <g>
    <g>
      <path class="cls-4" d="M132.05,813.12c-.44-.06-.9-.08-1.39-.08-.58,0-1.13-.03-1.65-.1-.98-.12-1.98-.21-2.97-.27-1-.06-2.01-.09-2.98-.09-1.03,0-2.1.03-3.16.09-1.05.06-2.08.15-3.06.27-.7.07-1.35.12-1.99.15-.61.03-1.24.08-1.88.14h-.09c-.68,0-1.21-.48-1.3-1.19-.1-.68.25-1.28.89-1.5l.08-.03h.09c2.15-.36,3.98-1.08,5.42-2.16,1.42-1.06,2.52-2.61,3.29-4.59,2.25-5.87,4.41-11.82,6.42-17.68,2.02-5.9,4.05-11.87,6.08-17.9,1.48-4.38,3.03-8.87,4.61-13.35,1.58-4.48,3.14-8.89,4.69-13.25.18-.57.68-.94,1.3-.94s1.11.37,1.31.97c.29.84.61,1.73.97,2.66.35.92.69,1.88,1,2.85,1.59,4.62,3.31,9.48,5.08,14.42,1.78,4.95,3.65,9.96,5.58,14.89,1.91,4.92,3.93,9.85,5.98,14.66,2.04,4.78,4.21,9.46,6.45,13.88.91,1.73,2.04,2.99,3.35,3.73,1.36.77,3,1.24,4.88,1.41h0c.54,0,1.17.47,1.17,1.37s-.64,1.37-1.27,1.37l-2.1.09c-.51.04-1.06.06-1.61.06-.28,0-.56,0-.84-.02-.86-.03-1.67-.12-2.41-.25-.52-.05-1.15-.11-1.8-.18-.65-.06-1.23-.09-1.78-.09-1.46,0-2.95.05-4.41.14-1.46.09-2.93.2-4.39.32-.35.07-.75.1-1.21.1-.33,0-.6.02-.83.06-.12.03-.24.05-.35.05-.57,0-1.05-.39-1.21-1-.17-.62.04-1.22.57-1.59l.07-.05,4.09-1.97c-1.31-3.63-2.68-7.34-4.07-11.03-1.39-3.68-2.79-7.46-4.15-11.24h-17.57c-.39,1.03-.91,2.43-1.53,4.18-.77,2.17-1.54,4.43-2.27,6.73-.74,2.3-1.39,4.53-1.95,6.62-.67,2.51-.81,3.73-.81,4.31,0,.39.09.69.27.91.24.3.53.54.89.72.38.2.81.34,1.27.41.56.09,1.06.17,1.53.23l.87.11v2.76l-1.13-.14ZM150.33,780.26l-6.58-22.4c-.21.66-.41,1.31-.6,1.96-1.19,3.73-2.32,7.4-3.35,10.91-.92,3.12-1.93,6.32-3.01,9.54h13.54Z"/>
      <path class="cls-2" d="M132.05,813.12c-.44-.06-.9-.08-1.39-.08-.58,0-1.13-.03-1.65-.1-.98-.12-1.98-.21-2.97-.27-1-.06-2.01-.09-2.98-.09-1.03,0-2.1.03-3.16.09-1.05.06-2.08.15-3.06.27-.7.07-1.35.12-1.99.15-.61.03-1.24.08-1.88.14h-.09c-.68,0-1.21-.48-1.3-1.19-.1-.68.25-1.28.89-1.5l.08-.03h.09c2.15-.36,3.98-1.08,5.42-2.16,1.42-1.06,2.52-2.61,3.29-4.59,2.25-5.87,4.41-11.82,6.42-17.68,2.02-5.9,4.05-11.87,6.08-17.9,1.48-4.38,3.03-8.87,4.61-13.35,1.58-4.48,3.14-8.89,4.69-13.25.18-.57.68-.94,1.3-.94s1.11.37,1.31.97c.29.84.61,1.73.97,2.66.35.92.69,1.88,1,2.85,1.59,4.62,3.31,9.48,5.08,14.42,1.78,4.95,3.65,9.96,5.58,14.89,1.91,4.92,3.93,9.85,5.98,14.66,2.04,4.78,4.21,9.46,6.45,13.88.91,1.73,2.04,2.99,3.35,3.73,1.36.77,3,1.24,4.88,1.41h0c.54,0,1.17.47,1.17,1.37s-.64,1.37-1.27,1.37l-2.1.09c-.51.04-1.06.06-1.61.06-.28,0-.56,0-.84-.02-.86-.03-1.67-.12-2.41-.25-.52-.05-1.15-.11-1.8-.18-.65-.06-1.23-.09-1.78-.09-1.46,0-2.95.05-4.41.14-1.46.09-2.93.2-4.39.32-.35.07-.75.1-1.21.1-.33,0-.6.02-.83.06-.12.03-.24.05-.35.05-.57,0-1.05-.39-1.21-1-.17-.62.04-1.22.57-1.59l.07-.05,4.09-1.97c-1.31-3.63-2.68-7.34-4.07-11.03-1.39-3.68-2.79-7.46-4.15-11.24h-17.57c-.39,1.03-.91,2.43-1.53,4.18-.77,2.17-1.54,4.43-2.27,6.73-.74,2.3-1.39,4.53-1.95,6.62-.67,2.51-.81,3.73-.81,4.31,0,.39.09.69.27.91.24.3.53.54.89.72.38.2.81.34,1.27.41.56.09,1.06.17,1.53.23l.87.11v2.76l-1.13-.14ZM150.33,780.26l-6.58-22.4c-.21.66-.41,1.31-.6,1.96-1.19,3.73-2.32,7.4-3.35,10.91-.92,3.12-1.93,6.32-3.01,9.54h13.54Z"/>
    </g>
    <g>
      <path class="cls-4" d="M246.57,814.07c-.35,0-.69-.15-.94-.42-8.04-7.21-15.83-15.09-23.1-23.34-7.23-8.22-14.45-16.63-21.47-25.01-1.2-1.44-2.26-2.73-3.19-3.89-.5-.62-1.04-1.28-1.62-1.96-.03.37-.06.73-.09,1.09-.09,1.09-.13,2.22-.13,3.37,0,3.17.06,6.37.18,9.52,0,0,.6,16.18.72,19.35.12,3.18.18,6.43.18,9.64,0,1.54.1,2.73.29,3.55.17.74.4,1.29.69,1.64.28.33.58.55.92.68.46.17.97.31,1.51.42.68.13,1.4.31,2.15.54.83.25,1.7.74,2.57,1.43l.05.04.05.05c.34.36.48.82.39,1.29-.12.63-.64,1.05-1.3,1.05l-2.58-.19c-.85-.06-1.71-.16-2.58-.29-1.03-.12-2.11-.23-3.2-.32-1.07-.09-2.17-.14-3.27-.14-1.44,0-2.93.09-4.44.27-1.45.17-2.95.38-4.45.62l-.07.04-.33.02c-.23,0-.79-.08-1.13-.78-.27-.57-.19-1.16.22-1.59l.04-.04.04-.04c.62-.52,1.2-.95,1.7-1.28l1.43-.93,1.56-.91c.36-.21.69-.5.96-.87.28-.36.51-.85.68-1.44.18-.62.27-1.45.27-2.47v-2.61c0-1.15-.03-2.51-.09-4.16-.06-3.44-.11-7.61-.13-12.43-.03-4.85-.04-9.8-.04-14.83,0-3.42.01-6.72.04-9.89.03-3.15.09-6.01.18-8.51.09-2.51.21-4.58.36-6.17.22-2.31.57-3.04,1.02-3.42l.08-.07.1-.05c.26-.14.52-.21.77-.21.36,0,.69.14.94.39,8.81,9.44,17.48,18.94,25.78,28.24,7.75,8.69,15.6,17.7,23.38,26.81-.01-7.03-.1-14.16-.27-21.22-.18-7.68-.27-15.5-.27-23.24,0-1.44-.13-2.57-.4-3.37-.24-.73-.56-1.28-.94-1.63-.37-.34-.76-.55-1.18-.64l-1.79-.37c-.54-.12-1.06-.23-1.57-.32-.72-.12-1.37-.44-1.93-.94-.48-.49-.56-1.12-.25-1.66.24-.42.66-.67,1.13-.67.11,0,.22.01.33.04,1.71.18,3.41.38,5.12.6,1.05.13,2.12.2,3.17.2.6,0,1.21-.02,1.81-.07l3.11-.28c.57-.06,1.18-.14,1.83-.23.32-.05.65-.07.96-.07.39,0,.78.04,1.15.11.3,0,.67.02,1.13.05.45.03.78.04,1.01.04h.89l.28,2.31-.61.32c-.26.14-.54.21-.82.21-.58.23-1.17.42-1.82.61-.56.17-1.09.38-1.57.63-.4.21-.71.47-.94.81-.21.3-.31.64-.31,1.06v7.65c0,2.55.03,5.12.09,7.62.06,2.59.09,5.17.09,7.67v7.65c0,5.62-.08,11.32-.22,16.95-.15,5.62-.47,11.36-.94,17.08,0,.38-.25.81-.69,1.09-.23.14-.47.21-.72.21Z"/>
      <path class="cls-2" d="M246.57,814.07c-.35,0-.69-.15-.94-.42-8.04-7.21-15.83-15.09-23.1-23.34-7.23-8.22-14.45-16.63-21.47-25.01-1.2-1.44-2.26-2.73-3.19-3.89-.5-.62-1.04-1.28-1.62-1.96-.03.37-.06.73-.09,1.09-.09,1.09-.13,2.22-.13,3.37,0,3.17.06,6.37.18,9.52,0,0,.6,16.18.72,19.35.12,3.18.18,6.43.18,9.64,0,1.54.1,2.73.29,3.55.17.74.4,1.29.69,1.64.28.33.58.55.92.68.46.17.97.31,1.51.42.68.13,1.4.31,2.15.54.83.25,1.7.74,2.57,1.43l.05.04.05.05c.34.36.48.82.39,1.29-.12.63-.64,1.05-1.3,1.05l-2.58-.19c-.85-.06-1.71-.16-2.58-.29-1.03-.12-2.11-.23-3.2-.32-1.07-.09-2.17-.14-3.27-.14-1.44,0-2.93.09-4.44.27-1.45.17-2.95.38-4.45.62l-.07.04-.33.02c-.23,0-.79-.08-1.13-.78-.27-.57-.19-1.16.22-1.59l.04-.04.04-.04c.62-.52,1.2-.95,1.7-1.28l1.43-.93,1.56-.91c.36-.21.69-.5.96-.87.28-.36.51-.85.68-1.44.18-.62.27-1.45.27-2.47v-2.61c0-1.15-.03-2.51-.09-4.16-.06-3.44-.11-7.61-.13-12.43-.03-4.85-.04-9.8-.04-14.83,0-3.42.01-6.72.04-9.89.03-3.15.09-6.01.18-8.51.09-2.51.21-4.58.36-6.17.22-2.31.57-3.04,1.02-3.42l.08-.07.1-.05c.26-.14.52-.21.77-.21.36,0,.69.14.94.39,8.81,9.44,17.48,18.94,25.78,28.24,7.75,8.69,15.6,17.7,23.38,26.81-.01-7.03-.1-14.16-.27-21.22-.18-7.68-.27-15.5-.27-23.24,0-1.44-.13-2.57-.4-3.37-.24-.73-.56-1.28-.94-1.63-.37-.34-.76-.55-1.18-.64l-1.79-.37c-.54-.12-1.06-.23-1.57-.32-.72-.12-1.37-.44-1.93-.94-.48-.49-.56-1.12-.25-1.66.24-.42.66-.67,1.13-.67.11,0,.22.01.33.04,1.71.18,3.41.38,5.12.6,1.05.13,2.12.2,3.17.2.6,0,1.21-.02,1.81-.07l3.11-.28c.57-.06,1.18-.14,1.83-.23.32-.05.65-.07.96-.07.39,0,.78.04,1.15.11.3,0,.67.02,1.13.05.45.03.78.04,1.01.04h.89l.28,2.31-.61.32c-.26.14-.54.21-.82.21-.58.23-1.17.42-1.82.61-.56.17-1.09.38-1.57.63-.4.21-.71.47-.94.81-.21.3-.31.64-.31,1.06v7.65c0,2.55.03,5.12.09,7.62.06,2.59.09,5.17.09,7.67v7.65c0,5.62-.08,11.32-.22,16.95-.15,5.62-.47,11.36-.94,17.08,0,.38-.25.81-.69,1.09-.23.14-.47.21-.72.21Z"/>
    </g>
    <g>
      <path class="cls-4" d="M286.49,813.87c-2.09,0-4.23-.06-6.36-.19-2.16-.13-4.29-.29-6.33-.47-2.37-.18-4.8-.37-7.27-.56-1.45-.11-2.92-.17-4.36-.17-.96,0-1.93.02-2.89.07h0c-.73,0-1.26-.48-1.35-1.19-.1-.68.25-1.27.88-1.5l.1-.03c1.2-.29,2.17-.65,2.88-1.09.67-.41,1.16-.9,1.5-1.47.34-.59.57-1.32.68-2.18.11-.95.17-2.1.17-3.42v-52.31c0-.92-.11-1.63-.32-2.12-.19-.45-.44-.77-.73-.98-.34-.24-.72-.4-1.13-.5l-1.61-.37c-.6-.12-1.14-.25-1.6-.38-.71-.2-1.27-.65-1.64-1.32-.36-.62-.19-1.1-.05-1.33.13-.23.47-.62,1.2-.62,1.08,0,2.18.02,3.29.05,1.11.03,2.18.08,3.21.14,1.31.12,2.6.22,3.88.28,1.25.06,2.51.09,3.75.09,1.64,0,3.27-.05,4.86-.14,1.6-.09,3.21-.2,4.81-.33,1.59-.06,3.2-.13,4.87-.19,1.71-.06,3.35-.09,4.87-.09,3.8,0,7.73.79,11.68,2.35,3.93,1.56,7.54,3.73,10.74,6.46,3.2,2.74,5.87,6,7.91,9.69,2.07,3.74,3.12,7.8,3.12,12.05v1.12c0,.32.03.64.08.96.07.43.1.86.1,1.28v1.03c0,6.31-.94,11.88-2.8,16.55-1.87,4.7-4.56,8.63-8,11.71-3.43,3.07-7.59,5.38-12.35,6.88-4.72,1.48-10.03,2.24-15.77,2.24ZM274.26,798.14c0,2.29.25,4.14.74,5.48.46,1.26,1.16,2.24,2.06,2.89.93.68,2.15,1.12,3.61,1.31,1.58.21,3.45.32,5.55.32,4.34,0,8.36-.6,11.94-1.77,3.54-1.16,6.62-2.93,9.16-5.24,2.53-2.31,4.52-5.25,5.92-8.73,1.41-3.5,2.12-7.66,2.12-12.36,0-5.07-.8-9.68-2.39-13.71-1.58-4.02-3.82-7.48-6.66-10.29-2.84-2.81-6.27-4.99-10.2-6.49-3.96-1.5-8.36-2.27-13.1-2.27-1.6,0-3.2.12-4.77.36-1.32.21-2.66.52-3.98.95v49.54Z"/>
      <path class="cls-2" d="M286.49,813.87c-2.09,0-4.23-.06-6.36-.19-2.16-.13-4.29-.29-6.33-.47-2.37-.18-4.8-.37-7.27-.56-1.45-.11-2.92-.17-4.36-.17-.96,0-1.93.02-2.89.07h0c-.73,0-1.26-.48-1.35-1.19-.1-.68.25-1.27.88-1.5l.1-.03c1.2-.29,2.17-.65,2.88-1.09.67-.41,1.16-.9,1.5-1.47.34-.59.57-1.32.68-2.18.11-.95.17-2.1.17-3.42v-52.31c0-.92-.11-1.63-.32-2.12-.19-.45-.44-.77-.73-.98-.34-.24-.72-.4-1.13-.5l-1.61-.37c-.6-.12-1.14-.25-1.6-.38-.71-.2-1.27-.65-1.64-1.32-.36-.62-.19-1.1-.05-1.33.13-.23.47-.62,1.2-.62,1.08,0,2.18.02,3.29.05,1.11.03,2.18.08,3.21.14,1.31.12,2.6.22,3.88.28,1.25.06,2.51.09,3.75.09,1.64,0,3.27-.05,4.86-.14,1.6-.09,3.21-.2,4.81-.33,1.59-.06,3.2-.13,4.87-.19,1.71-.06,3.35-.09,4.87-.09,3.8,0,7.73.79,11.68,2.35,3.93,1.56,7.54,3.73,10.74,6.46,3.2,2.74,5.87,6,7.91,9.69,2.07,3.74,3.12,7.8,3.12,12.05v1.12c0,.32.03.64.08.96.07.43.1.86.1,1.28v1.03c0,6.31-.94,11.88-2.8,16.55-1.87,4.7-4.56,8.63-8,11.71-3.43,3.07-7.59,5.38-12.35,6.88-4.72,1.48-10.03,2.24-15.77,2.24ZM274.26,798.14c0,2.29.25,4.14.74,5.48.46,1.26,1.16,2.24,2.06,2.89.93.68,2.15,1.12,3.61,1.31,1.58.21,3.45.32,5.55.32,4.34,0,8.36-.6,11.94-1.77,3.54-1.16,6.62-2.93,9.16-5.24,2.53-2.31,4.52-5.25,5.92-8.73,1.41-3.5,2.12-7.66,2.12-12.36,0-5.07-.8-9.68-2.39-13.71-1.58-4.02-3.82-7.48-6.66-10.29-2.84-2.81-6.27-4.99-10.2-6.49-3.96-1.5-8.36-2.27-13.1-2.27-1.6,0-3.2.12-4.77.36-1.32.21-2.66.52-3.98.95v49.54Z"/>
    </g>
    <g>
      <path class="cls-4" d="M337.59,813.12c-.44-.06-.9-.08-1.39-.08-.58,0-1.13-.03-1.65-.1-.98-.12-1.98-.21-2.97-.27-1-.06-2.01-.09-2.98-.09-1.03,0-2.1.03-3.16.09-1.05.06-2.08.15-3.06.27-.7.07-1.35.12-1.99.15-.61.03-1.24.08-1.88.14h-.09c-.68,0-1.21-.48-1.3-1.19-.1-.68.25-1.28.89-1.5l.08-.03h.09c2.15-.36,3.98-1.08,5.42-2.16,1.42-1.06,2.52-2.61,3.29-4.59,2.25-5.87,4.41-11.82,6.42-17.68,2.02-5.9,4.05-11.87,6.08-17.9,1.48-4.38,3.03-8.87,4.61-13.35,1.58-4.48,3.14-8.89,4.69-13.25.18-.57.68-.94,1.3-.94s1.11.37,1.31.97c.29.84.61,1.73.97,2.66.35.92.69,1.88,1,2.85,1.59,4.62,3.31,9.48,5.08,14.42,1.78,4.95,3.65,9.96,5.58,14.89,1.91,4.92,3.93,9.85,5.98,14.66,2.04,4.78,4.21,9.46,6.45,13.88.91,1.73,2.04,2.99,3.35,3.73,1.36.77,3,1.24,4.88,1.41h0c.54,0,1.17.47,1.17,1.37s-.64,1.37-1.27,1.37l-2.1.09c-.51.04-1.06.06-1.61.06-.28,0-.56,0-.84-.02-.86-.03-1.67-.12-2.41-.25-.52-.05-1.15-.11-1.8-.18-.65-.06-1.23-.09-1.78-.09-1.46,0-2.95.05-4.41.14-1.46.09-2.93.2-4.39.32-.35.07-.75.1-1.21.1-.33,0-.6.02-.83.06-.12.03-.24.05-.35.05-.57,0-1.05-.39-1.21-1-.17-.62.04-1.22.57-1.59l.07-.05,4.09-1.97c-1.31-3.63-2.68-7.34-4.07-11.03-1.39-3.68-2.79-7.46-4.15-11.24h-17.57c-.39,1.03-.91,2.43-1.53,4.18-.77,2.17-1.54,4.43-2.27,6.73-.74,2.3-1.39,4.53-1.95,6.62-.67,2.51-.81,3.73-.81,4.31,0,.39.09.69.27.91.24.3.53.54.89.72.38.2.81.34,1.27.41.56.09,1.06.17,1.53.23l.87.11v2.76l-1.13-.14ZM355.88,780.26l-6.58-22.4c-.21.66-.41,1.31-.6,1.96-1.19,3.73-2.32,7.4-3.35,10.91-.92,3.12-1.93,6.32-3.01,9.54h13.54Z"/>
      <path class="cls-2" d="M337.59,813.12c-.44-.06-.9-.08-1.39-.08-.58,0-1.13-.03-1.65-.1-.98-.12-1.98-.21-2.97-.27-1-.06-2.01-.09-2.98-.09-1.03,0-2.1.03-3.16.09-1.05.06-2.08.15-3.06.27-.7.07-1.35.12-1.99.15-.61.03-1.24.08-1.88.14h-.09c-.68,0-1.21-.48-1.3-1.19-.1-.68.25-1.28.89-1.5l.08-.03h.09c2.15-.36,3.98-1.08,5.42-2.16,1.42-1.06,2.52-2.61,3.29-4.59,2.25-5.87,4.41-11.82,6.42-17.68,2.02-5.9,4.05-11.87,6.08-17.9,1.48-4.38,3.03-8.87,4.61-13.35,1.58-4.48,3.14-8.89,4.69-13.25.18-.57.68-.94,1.3-.94s1.11.37,1.31.97c.29.84.61,1.73.97,2.66.35.92.69,1.88,1,2.85,1.59,4.62,3.31,9.48,5.08,14.42,1.78,4.95,3.65,9.96,5.58,14.89,1.91,4.92,3.93,9.85,5.98,14.66,2.04,4.78,4.21,9.46,6.45,13.88.91,1.73,2.04,2.99,3.35,3.73,1.36.77,3,1.24,4.88,1.41h0c.54,0,1.17.47,1.17,1.37s-.64,1.37-1.27,1.37l-2.1.09c-.51.04-1.06.06-1.61.06-.28,0-.56,0-.84-.02-.86-.03-1.67-.12-2.41-.25-.52-.05-1.15-.11-1.8-.18-.65-.06-1.23-.09-1.78-.09-1.46,0-2.95.05-4.41.14-1.46.09-2.93.2-4.39.32-.35.07-.75.1-1.21.1-.33,0-.6.02-.83.06-.12.03-.24.05-.35.05-.57,0-1.05-.39-1.21-1-.17-.62.04-1.22.57-1.59l.07-.05,4.09-1.97c-1.31-3.63-2.68-7.34-4.07-11.03-1.39-3.68-2.79-7.46-4.15-11.24h-17.57c-.39,1.03-.91,2.43-1.53,4.18-.77,2.17-1.54,4.43-2.27,6.73-.74,2.3-1.39,4.53-1.95,6.62-.67,2.51-.81,3.73-.81,4.31,0,.39.09.69.27.91.24.3.53.54.89.72.38.2.81.34,1.27.41.56.09,1.06.17,1.53.23l.87.11v2.76l-1.13-.14ZM355.88,780.26l-6.58-22.4c-.21.66-.41,1.31-.6,1.96-1.19,3.73-2.32,7.4-3.35,10.91-.92,3.12-1.93,6.32-3.01,9.54h13.54Z"/>
    </g>
    <g>
      <path class="cls-4" d="M446.26,814.53c-2.47,0-4.79-.54-6.89-1.6-2.04-1.03-3.96-2.37-5.68-3.99-1.7-1.58-3.31-3.4-4.78-5.41-1.44-1.97-2.8-3.95-4.05-5.87-1.23-1.89-2.65-3.91-4.21-6.01-1.53-2.05-3.06-3.75-4.55-5.07-1.05-.93-2.23-1.48-3.59-1.67-1.49-.21-3.01-.32-4.51-.32h-1.97c-.32,0-.64,0-.97.02v17.07c0,2.33.64,4.24,1.96,5.84,1.3,1.58,2.97,2.45,5.1,2.67l.9.09v2.75l-1.1-.11c-1.79-.18-3.64-.34-5.51-.46-1.83-.12-3.67-.18-5.48-.18s-3.61.08-5.37.23c-1.72.15-3.52.35-5.34.59-.1.03-.21.04-.31.04-.57,0-1.05-.39-1.21-.99-.17-.62.04-1.22.57-1.59l.07-.05.08-.04c1.56-.73,2.88-1.88,3.93-3.43,1.06-1.55,1.57-3.19,1.57-4.99v-50.54c0-1.74-.6-3.23-1.83-4.54-1.26-1.35-2.75-2.25-4.4-2.7-.7-.24-1.06-.83-.95-1.5.1-.67.63-1.12,1.3-1.12h1.7c.91,0,1.81.02,2.72.05.91.03,1.79.08,2.63.14,1.78.18,3.55.28,5.29.28,1.86,0,3.78-.09,5.72-.27,1.05-.07,2.03-.11,2.96-.14.94-.03,1.92-.05,2.94-.05,2.57,0,5.12.33,7.58.97,2.49.65,4.75,1.69,6.72,3.09,1.99,1.42,3.61,3.28,4.82,5.52,1.21,2.25,1.82,5.02,1.82,8.21,0,2.08-.32,4.17-.94,6.21-.61,2.02-1.44,3.98-2.45,5.83-1.01,1.84-2.18,3.6-3.5,5.23-1.1,1.35-2.21,2.62-3.33,3.77.72.9,1.53,2,2.43,3.28,1.13,1.62,2.29,3.26,3.48,4.94,1.77,2.53,3.66,5.16,5.62,7.82,1.93,2.62,3.98,4.99,6.1,7.06,2.1,2.04,4.3,3.66,6.56,4.82,1.72.89,3.53,1.34,5.36,1.34.47,0,.96-.03,1.44-.09l.89-.11.57,2.39-.71.35c-1.43.71-2.92,1.27-4.45,1.66-1.54.39-3.14.59-4.76.59ZM405.15,777.34c1.06.17,2.14.29,3.22.36,1.38.09,2.72.14,4,.14,4.16,0,7.07-1.17,8.65-3.48,1.66-2.43,2.51-5.82,2.51-10.07,0-2.14-.3-4.3-.9-6.44-.59-2.12-1.48-4.06-2.64-5.77-1.14-1.68-2.56-3.06-4.22-4.1-1.62-1.01-3.55-1.53-5.73-1.53-.95,0-1.9.07-2.84.22-.69.11-1.38.28-2.06.51v30.16Z"/>
      <path class="cls-2" d="M446.26,814.53c-2.47,0-4.79-.54-6.89-1.6-2.04-1.03-3.96-2.37-5.68-3.99-1.7-1.58-3.31-3.4-4.78-5.41-1.44-1.97-2.8-3.95-4.05-5.87-1.23-1.89-2.65-3.91-4.21-6.01-1.53-2.05-3.06-3.75-4.55-5.07-1.05-.93-2.23-1.48-3.59-1.67-1.49-.21-3.01-.32-4.51-.32h-1.97c-.32,0-.64,0-.97.02v17.07c0,2.33.64,4.24,1.96,5.84,1.3,1.58,2.97,2.45,5.1,2.67l.9.09v2.75l-1.1-.11c-1.79-.18-3.64-.34-5.51-.46-1.83-.12-3.67-.18-5.48-.18s-3.61.08-5.37.23c-1.72.15-3.52.35-5.34.59-.1.03-.21.04-.31.04-.57,0-1.05-.39-1.21-.99-.17-.62.04-1.22.57-1.59l.07-.05.08-.04c1.56-.73,2.88-1.88,3.93-3.43,1.06-1.55,1.57-3.19,1.57-4.99v-50.54c0-1.74-.6-3.23-1.83-4.54-1.26-1.35-2.75-2.25-4.4-2.7-.7-.24-1.06-.83-.95-1.5.1-.67.63-1.12,1.3-1.12h1.7c.91,0,1.81.02,2.72.05.91.03,1.79.08,2.63.14,1.78.18,3.55.28,5.29.28,1.86,0,3.78-.09,5.72-.27,1.05-.07,2.03-.11,2.96-.14.94-.03,1.92-.05,2.94-.05,2.57,0,5.12.33,7.58.97,2.49.65,4.75,1.69,6.72,3.09,1.99,1.42,3.61,3.28,4.82,5.52,1.21,2.25,1.82,5.02,1.82,8.21,0,2.08-.32,4.17-.94,6.21-.61,2.02-1.44,3.98-2.45,5.83-1.01,1.84-2.18,3.6-3.5,5.23-1.1,1.35-2.21,2.62-3.33,3.77.72.9,1.53,2,2.43,3.28,1.13,1.62,2.29,3.26,3.48,4.94,1.77,2.53,3.66,5.16,5.62,7.82,1.93,2.62,3.98,4.99,6.1,7.06,2.1,2.04,4.3,3.66,6.56,4.82,1.72.89,3.53,1.34,5.36,1.34.47,0,.96-.03,1.44-.09l.89-.11.57,2.39-.71.35c-1.43.71-2.92,1.27-4.45,1.66-1.54.39-3.14.59-4.76.59ZM405.15,777.34c1.06.17,2.14.29,3.22.36,1.38.09,2.72.14,4,.14,4.16,0,7.07-1.17,8.65-3.48,1.66-2.43,2.51-5.82,2.51-10.07,0-2.14-.3-4.3-.9-6.44-.59-2.12-1.48-4.06-2.64-5.77-1.14-1.68-2.56-3.06-4.22-4.1-1.62-1.01-3.55-1.53-5.73-1.53-.95,0-1.9.07-2.84.22-.69.11-1.38.28-2.06.51v30.16Z"/>
    </g>
    <g>
      <path class="cls-4" d="M509.38,813.87c-2.09,0-4.23-.06-6.36-.19-2.16-.13-4.29-.29-6.33-.47-2.37-.18-4.8-.37-7.27-.56-1.45-.11-2.92-.17-4.36-.17-.96,0-1.93.02-2.89.07h0c-.73,0-1.26-.48-1.35-1.19-.1-.68.25-1.27.88-1.5l.1-.03c1.2-.29,2.17-.65,2.88-1.09.67-.41,1.16-.9,1.5-1.47.34-.59.57-1.32.68-2.18.11-.95.17-2.1.17-3.42v-52.31c0-.92-.11-1.63-.32-2.12-.19-.45-.44-.77-.73-.98-.34-.24-.72-.4-1.13-.5l-1.61-.37c-.6-.12-1.14-.25-1.6-.38-.71-.2-1.27-.65-1.64-1.32-.36-.62-.19-1.1-.05-1.33.13-.23.47-.62,1.2-.62,1.08,0,2.18.02,3.29.05,1.11.03,2.18.08,3.21.14,1.31.12,2.6.22,3.88.28,1.25.06,2.51.09,3.75.09,1.64,0,3.27-.05,4.86-.14,1.6-.09,3.21-.2,4.81-.33,1.59-.06,3.2-.13,4.87-.19,1.71-.06,3.35-.09,4.87-.09,3.8,0,7.73.79,11.68,2.35,3.93,1.56,7.54,3.73,10.74,6.46,3.2,2.74,5.86,6,7.91,9.69,2.07,3.74,3.12,7.8,3.12,12.05v1.12c0,.32.03.64.08.96.07.43.1.86.1,1.28v1.03c0,6.31-.94,11.88-2.8,16.55-1.87,4.69-4.56,8.63-8,11.71-3.43,3.07-7.59,5.38-12.35,6.88-4.72,1.48-10.03,2.24-15.77,2.24ZM497.15,798.14c0,2.29.25,4.14.74,5.48.46,1.26,1.16,2.24,2.06,2.89.93.68,2.15,1.12,3.61,1.31,1.58.21,3.45.32,5.55.32,4.34,0,8.36-.6,11.94-1.77,3.54-1.16,6.62-2.93,9.16-5.24,2.53-2.31,4.52-5.25,5.92-8.73,1.41-3.5,2.12-7.66,2.12-12.36,0-5.07-.8-9.68-2.39-13.71-1.58-4.02-3.82-7.48-6.66-10.29-2.84-2.81-6.27-4.99-10.2-6.49-3.96-1.5-8.36-2.27-13.1-2.27-1.6,0-3.2.12-4.77.36-1.32.21-2.66.52-3.98.95v49.54Z"/>
      <path class="cls-2" d="M509.38,813.87c-2.09,0-4.23-.06-6.36-.19-2.16-.13-4.29-.29-6.33-.47-2.37-.18-4.8-.37-7.27-.56-1.45-.11-2.92-.17-4.36-.17-.96,0-1.93.02-2.89.07h0c-.73,0-1.26-.48-1.35-1.19-.1-.68.25-1.27.88-1.5l.1-.03c1.2-.29,2.17-.65,2.88-1.09.67-.41,1.16-.9,1.5-1.47.34-.59.57-1.32.68-2.18.11-.95.17-2.1.17-3.42v-52.31c0-.92-.11-1.63-.32-2.12-.19-.45-.44-.77-.73-.98-.34-.24-.72-.4-1.13-.5l-1.61-.37c-.6-.12-1.14-.25-1.6-.38-.71-.2-1.27-.65-1.64-1.32-.36-.62-.19-1.1-.05-1.33.13-.23.47-.62,1.2-.62,1.08,0,2.18.02,3.29.05,1.11.03,2.18.08,3.21.14,1.31.12,2.6.22,3.88.28,1.25.06,2.51.09,3.75.09,1.64,0,3.27-.05,4.86-.14,1.6-.09,3.21-.2,4.81-.33,1.59-.06,3.2-.13,4.87-.19,1.71-.06,3.35-.09,4.87-.09,3.8,0,7.73.79,11.68,2.35,3.93,1.56,7.54,3.73,10.74,6.46,3.2,2.74,5.86,6,7.91,9.69,2.07,3.74,3.12,7.8,3.12,12.05v1.12c0,.32.03.64.08.96.07.43.1.86.1,1.28v1.03c0,6.31-.94,11.88-2.8,16.55-1.87,4.69-4.56,8.63-8,11.71-3.43,3.07-7.59,5.38-12.35,6.88-4.72,1.48-10.03,2.24-15.77,2.24ZM497.15,798.14c0,2.29.25,4.14.74,5.48.46,1.26,1.16,2.24,2.06,2.89.93.68,2.15,1.12,3.61,1.31,1.58.21,3.45.32,5.55.32,4.34,0,8.36-.6,11.94-1.77,3.54-1.16,6.62-2.93,9.16-5.24,2.53-2.31,4.52-5.25,5.92-8.73,1.41-3.5,2.12-7.66,2.12-12.36,0-5.07-.8-9.68-2.39-13.71-1.58-4.02-3.82-7.48-6.66-10.29-2.84-2.81-6.27-4.99-10.2-6.49-3.96-1.5-8.36-2.27-13.1-2.27-1.6,0-3.2.12-4.77.36-1.32.21-2.66.52-3.98.95v49.54Z"/>
    </g>
    <g>
      <path class="cls-4" d="M551.83,810.43l.95-.04c1.12-.05,2-.29,2.61-.71.64-.43,1.11-.98,1.46-1.67.37-.74.62-1.61.75-2.58.14-1.04.21-2.11.21-3.17v-52.69c0-1-.13-1.54-.24-1.83-.15-.37-.34-.67-.58-.87-.26-.23-.55-.39-.88-.51-.41-.14-.87-.27-1.37-.39-.62-.13-1.26-.32-1.88-.55-.65-.25-1.35-.66-2.08-1.21l-.06-.04-.05-.05c-.42-.42-.52-1-.28-1.51.22-.47.66-.75,1.17-.75h5.45c2.01.06,4.38.11,7.07.14,2.74.03,5.36.05,7.86.05,1.9,0,3.76-.01,5.57-.05,1.81-.03,3.44-.08,4.89-.14,1.44-.06,2.67-.15,3.68-.27,1.15-.14,1.58-.28,1.72-.34.28-.18.55-.26.82-.26.59,0,1.22.44,1.22,1.41v.1c-.19,1.75-.45,3.54-.78,5.3-.33,1.75-.68,3.46-1.04,5.07-.06.31-.12.6-.19.84-.06.2-.11.44-.16.72v.06s-.03.06-.03.06c-.18.58-.67.93-1.27.93h-.08l-.16-.02c-.69-.1-1.16-.63-1.16-1.31-.21-2.6-1.03-4.36-2.44-5.14-1.57-.88-3.63-1.32-6.13-1.32h-8.57v24.39h13.04c.15,0,.51-.04,1.16-.33.62-.28,1.25-.57,1.9-.88.48-.25,1-.49,1.5-.68.48-.19.98-.35,1.49-.49.17-.06.34-.09.5-.09.6,0,1.25.44,1.25,1.42v.06l-.37,3.04c-.12,1-.24,1.96-.36,2.9-.18,1.25-.34,2.45-.49,3.59-.15,1.14-.28,2.3-.4,3.47,0,.49-.31.98-.84,1.2-.17.07-.35.11-.53.11-.37,0-.71-.15-.98-.43-.38-.4-.7-.9-.92-1.5-.2-.51-.36-1.04-.49-1.57-.11-.46-.25-.93-.42-1.38-.13-.36-.39-.75-.76-1.14-.12-.15-.46-.47-1.69-.74-1.05-.24-2.21-.4-3.43-.49-1.24-.09-2.5-.14-3.73-.14h-5.35v24.66c.51.85,1.14,1.59,1.88,2.2.83.69,1.74,1.27,2.7,1.73.96.46,1.99.81,3.05,1.05,1.05.23,2.09.35,3.09.35,2.6,0,4.79-.7,6.68-2.13,1.88-1.42,3.09-3.4,3.7-6.05l.21-.9,2.58.38-.21,1.03c-.29,1.44-.54,2.94-.75,4.46-.21,1.53-.43,3.05-.67,4.54h0s-.25,2.06-.25,2.06c-.03.62-.41,1.1-.97,1.25l-.15.15-1.74.36h-5.83c-1.93,0-3.87-.03-5.76-.09h-.09c-1.85,0-3.7-.02-5.52-.05-1.84-.03-3.71-.05-5.62-.05h-5.72c-1.87,0-3.78.06-5.66.18l-1.06.07v-2.77Z"/>
      <path class="cls-2" d="M551.83,810.43l.95-.04c1.12-.05,2-.29,2.61-.71.64-.43,1.11-.98,1.46-1.67.37-.74.62-1.61.75-2.58.14-1.04.21-2.11.21-3.17v-52.69c0-1-.13-1.54-.24-1.83-.15-.37-.34-.67-.58-.87-.26-.23-.55-.39-.88-.51-.41-.14-.87-.27-1.37-.39-.62-.13-1.26-.32-1.88-.55-.65-.25-1.35-.66-2.08-1.21l-.06-.04-.05-.05c-.42-.42-.52-1-.28-1.51.22-.47.66-.75,1.17-.75h5.45c2.01.06,4.38.11,7.07.14,2.74.03,5.36.05,7.86.05,1.9,0,3.76-.01,5.57-.05,1.81-.03,3.44-.08,4.89-.14,1.44-.06,2.67-.15,3.68-.27,1.15-.14,1.58-.28,1.72-.34.28-.18.55-.26.82-.26.59,0,1.22.44,1.22,1.41v.1c-.19,1.75-.45,3.54-.78,5.3-.33,1.75-.68,3.46-1.04,5.07-.06.31-.12.6-.19.84-.06.2-.11.44-.16.72v.06s-.03.06-.03.06c-.18.58-.67.93-1.27.93h-.08l-.16-.02c-.69-.1-1.16-.63-1.16-1.31-.21-2.6-1.03-4.36-2.44-5.14-1.57-.88-3.63-1.32-6.13-1.32h-8.57v24.39h13.04c.15,0,.51-.04,1.16-.33.62-.28,1.25-.57,1.9-.88.48-.25,1-.49,1.5-.68.48-.19.98-.35,1.49-.49.17-.06.34-.09.5-.09.6,0,1.25.44,1.25,1.42v.06l-.37,3.04c-.12,1-.24,1.96-.36,2.9-.18,1.25-.34,2.45-.49,3.59-.15,1.14-.28,2.3-.4,3.47,0,.49-.31.98-.84,1.2-.17.07-.35.11-.53.11-.37,0-.71-.15-.98-.43-.38-.4-.7-.9-.92-1.5-.2-.51-.36-1.04-.49-1.57-.11-.46-.25-.93-.42-1.38-.13-.36-.39-.75-.76-1.14-.12-.15-.46-.47-1.69-.74-1.05-.24-2.21-.4-3.43-.49-1.24-.09-2.5-.14-3.73-.14h-5.35v24.66c.51.85,1.14,1.59,1.88,2.2.83.69,1.74,1.27,2.7,1.73.96.46,1.99.81,3.05,1.05,1.05.23,2.09.35,3.09.35,2.6,0,4.79-.7,6.68-2.13,1.88-1.42,3.09-3.4,3.7-6.05l.21-.9,2.58.38-.21,1.03c-.29,1.44-.54,2.94-.75,4.46-.21,1.53-.43,3.05-.67,4.54h0s-.25,2.06-.25,2.06c-.03.62-.41,1.1-.97,1.25l-.15.15-1.74.36h-5.83c-1.93,0-3.87-.03-5.76-.09h-.09c-1.85,0-3.7-.02-5.52-.05-1.84-.03-3.71-.05-5.62-.05h-5.72c-1.87,0-3.78.06-5.66.18l-1.06.07v-2.77Z"/>
    </g>
    <g>
      <path class="cls-4" d="M633.38,813.22c-6.03-.55-12.1-.83-18.06-.83-4.93,0-9.88.09-14.71.28-.75.06-1.65.09-2.63.09-.85,0-1.63.03-2.33.09h0c-.71,0-1.34-.47-1.34-1.37s.64-1.37,1.27-1.37c.62-.04,1.23-.3,1.82-.79.65-.54,1.21-1.21,1.65-1.97.46-.79.81-1.66,1.06-2.59.25-.94.37-1.81.37-2.59v-51.38c0-1.83-.55-3.22-1.68-4.25-1.17-1.06-2.56-1.6-4.24-1.66l-.97-.03v-2.77l1.05.05c3.59.18,7.34.28,11.12.28,1.77,0,3.54-.06,5.25-.18,0,0,5.23-.37,5.24-.37.75,0,1.27.47,1.37,1.18.09.7-.25,1.29-.89,1.51l-.07.03h-.08c-1.54.29-2.96.98-4.22,2.07-1.18,1.02-1.76,2.35-1.76,4.05v47.09c0,1.59.27,3.03.81,4.26.54,1.23,1.27,2.28,2.17,3.11.91.84,2,1.49,3.24,1.94,1.25.46,2.64.69,4.13.69,2.88,0,5.56-.85,7.97-2.53,2.43-1.69,4.32-3.94,5.61-6.69l.4-.85,2.36.93-.16.82c-.06.29-.1.53-.12.73-.03.18-.04.37-.04.57-.12,1.87-.3,3.7-.54,5.5-.23,1.73-.69,3.41-1.35,5,.01.1.02.21.02.32v.3l-.16.25c-.09.14-.16.25-.2.35l-.07.15-.11.12c-.39.41-.8.49-1.08.49h-.09Z"/>
      <path class="cls-2" d="M633.38,813.22c-6.03-.55-12.1-.83-18.06-.83-4.93,0-9.88.09-14.71.28-.75.06-1.65.09-2.63.09-.85,0-1.63.03-2.33.09h0c-.71,0-1.34-.47-1.34-1.37s.64-1.37,1.27-1.37c.62-.04,1.23-.3,1.82-.79.65-.54,1.21-1.21,1.65-1.97.46-.79.81-1.66,1.06-2.59.25-.94.37-1.81.37-2.59v-51.38c0-1.83-.55-3.22-1.68-4.25-1.17-1.06-2.56-1.6-4.24-1.66l-.97-.03v-2.77l1.05.05c3.59.18,7.34.28,11.12.28,1.77,0,3.54-.06,5.25-.18,0,0,5.23-.37,5.24-.37.75,0,1.27.47,1.37,1.18.09.7-.25,1.29-.89,1.51l-.07.03h-.08c-1.54.29-2.96.98-4.22,2.07-1.18,1.02-1.76,2.35-1.76,4.05v47.09c0,1.59.27,3.03.81,4.26.54,1.23,1.27,2.28,2.17,3.11.91.84,2,1.49,3.24,1.94,1.25.46,2.64.69,4.13.69,2.88,0,5.56-.85,7.97-2.53,2.43-1.69,4.32-3.94,5.61-6.69l.4-.85,2.36.93-.16.82c-.06.29-.1.53-.12.73-.03.18-.04.37-.04.57-.12,1.87-.3,3.7-.54,5.5-.23,1.73-.69,3.41-1.35,5,.01.1.02.21.02.32v.3l-.16.25c-.09.14-.16.25-.2.35l-.07.15-.11.12c-.39.41-.8.49-1.08.49h-.09Z"/>
    </g>
    <g>
      <path class="cls-4" d="M700.71,813.22c-6.03-.55-12.1-.83-18.06-.83-4.93,0-9.88.09-14.71.28-.75.06-1.65.09-2.63.09-.85,0-1.63.03-2.33.09h0c-.71,0-1.34-.47-1.34-1.37s.64-1.37,1.27-1.37c.62-.04,1.23-.3,1.82-.79.65-.54,1.21-1.21,1.65-1.97.46-.79.81-1.66,1.06-2.59.25-.94.37-1.81.37-2.59v-51.38c0-1.83-.55-3.22-1.68-4.25-1.17-1.06-2.56-1.6-4.24-1.66l-.97-.03v-2.77l1.05.05c3.59.18,7.34.28,11.12.28,1.77,0,3.54-.06,5.25-.18,0,0,5.23-.37,5.24-.37.75,0,1.27.47,1.37,1.18.09.7-.25,1.29-.88,1.51l-.08.03h-.08c-1.54.29-2.96.98-4.22,2.07-1.18,1.02-1.75,2.35-1.75,4.05v47.09c0,1.59.27,3.03.81,4.26.54,1.23,1.27,2.28,2.17,3.11.91.84,2,1.49,3.24,1.94,1.25.46,2.64.69,4.13.69,2.88,0,5.56-.85,7.97-2.53,2.43-1.69,4.32-3.94,5.61-6.69l.4-.85,2.36.93-.16.82c-.06.29-.1.53-.12.73-.03.18-.04.37-.04.57-.12,1.87-.3,3.69-.54,5.49-.23,1.73-.69,3.41-1.36,5,.01.1.02.21.02.32v.29l-.16.25c-.09.14-.16.26-.2.35l-.07.15-.12.12c-.39.41-.8.49-1.08.49h-.09Z"/>
      <path class="cls-2" d="M700.71,813.22c-6.03-.55-12.1-.83-18.06-.83-4.93,0-9.88.09-14.71.28-.75.06-1.65.09-2.63.09-.85,0-1.63.03-2.33.09h0c-.71,0-1.34-.47-1.34-1.37s.64-1.37,1.27-1.37c.62-.04,1.23-.3,1.82-.79.65-.54,1.21-1.21,1.65-1.97.46-.79.81-1.66,1.06-2.59.25-.94.37-1.81.37-2.59v-51.38c0-1.83-.55-3.22-1.68-4.25-1.17-1.06-2.56-1.6-4.24-1.66l-.97-.03v-2.77l1.05.05c3.59.18,7.34.28,11.12.28,1.77,0,3.54-.06,5.25-.18,0,0,5.23-.37,5.24-.37.75,0,1.27.47,1.37,1.18.09.7-.25,1.29-.88,1.51l-.08.03h-.08c-1.54.29-2.96.98-4.22,2.07-1.18,1.02-1.75,2.35-1.75,4.05v47.09c0,1.59.27,3.03.81,4.26.54,1.23,1.27,2.28,2.17,3.11.91.84,2,1.49,3.24,1.94,1.25.46,2.64.69,4.13.69,2.88,0,5.56-.85,7.97-2.53,2.43-1.69,4.32-3.94,5.61-6.69l.4-.85,2.36.93-.16.82c-.06.29-.1.53-.12.73-.03.18-.04.37-.04.57-.12,1.87-.3,3.69-.54,5.49-.23,1.73-.69,3.41-1.36,5,.01.1.02.21.02.32v.29l-.16.25c-.09.14-.16.26-.2.35l-.07.15-.12.12c-.39.41-.8.49-1.08.49h-.09Z"/>
    </g>
    <g>
      <path class="cls-4" d="M746.21,813.22c-6.03-.55-12.1-.83-18.06-.83-4.93,0-9.88.09-14.71.28-.75.06-1.65.09-2.63.09-.85,0-1.63.03-2.33.09h0c-.69,0-1.34-.43-1.34-1.37s.64-1.37,1.27-1.37c.62-.04,1.23-.3,1.82-.79.65-.54,1.21-1.21,1.65-1.97.46-.79.82-1.66,1.06-2.59.25-.93.37-1.81.37-2.59v-51.38c0-1.84-.55-3.22-1.68-4.25-1.17-1.06-2.55-1.6-4.24-1.66l-.97-.03v-2.77l1.05.05c3.6.18,7.34.28,11.12.28,1.77,0,3.54-.06,5.25-.18,0,0,5.23-.37,5.24-.37.75,0,1.27.48,1.37,1.18.09.7-.25,1.28-.88,1.5l-.08.03h-.08c-1.54.29-2.96.98-4.22,2.07-1.18,1.02-1.76,2.34-1.76,4.05v47.09c0,1.6.27,3.03.81,4.26.54,1.23,1.27,2.28,2.17,3.11.91.84,2,1.49,3.24,1.94,1.25.46,2.64.69,4.13.69,2.88,0,5.56-.85,7.97-2.53,2.43-1.69,4.32-3.94,5.61-6.69l.4-.85,2.36.92-.16.82c-.06.29-.1.53-.12.74-.03.18-.04.37-.04.57-.12,1.89-.31,3.71-.55,5.5-.23,1.73-.69,3.41-1.35,5,.02.14.02.26.02.32v.29l-.16.25c-.09.14-.16.26-.2.35l-.07.15-.11.12c-.39.41-.8.5-1.08.5h-.09Z"/>
      <path class="cls-2" d="M746.21,813.22c-6.03-.55-12.1-.83-18.06-.83-4.93,0-9.88.09-14.71.28-.75.06-1.65.09-2.63.09-.85,0-1.63.03-2.33.09h0c-.69,0-1.34-.43-1.34-1.37s.64-1.37,1.27-1.37c.62-.04,1.23-.3,1.82-.79.65-.54,1.21-1.21,1.65-1.97.46-.79.82-1.66,1.06-2.59.25-.93.37-1.81.37-2.59v-51.38c0-1.84-.55-3.22-1.68-4.25-1.17-1.06-2.55-1.6-4.24-1.66l-.97-.03v-2.77l1.05.05c3.6.18,7.34.28,11.12.28,1.77,0,3.54-.06,5.25-.18,0,0,5.23-.37,5.24-.37.75,0,1.27.48,1.37,1.18.09.7-.25,1.28-.88,1.5l-.08.03h-.08c-1.54.29-2.96.98-4.22,2.07-1.18,1.02-1.76,2.34-1.76,4.05v47.09c0,1.6.27,3.03.81,4.26.54,1.23,1.27,2.28,2.17,3.11.91.84,2,1.49,3.24,1.94,1.25.46,2.64.69,4.13.69,2.88,0,5.56-.85,7.97-2.53,2.43-1.69,4.32-3.94,5.61-6.69l.4-.85,2.36.92-.16.82c-.06.29-.1.53-.12.74-.03.18-.04.37-.04.57-.12,1.89-.31,3.71-.55,5.5-.23,1.73-.69,3.41-1.35,5,.02.14.02.26.02.32v.29l-.16.25c-.09.14-.16.26-.2.35l-.07.15-.11.12c-.39.41-.8.5-1.08.5h-.09Z"/>
    </g>
    <g>
      <path class="cls-4" d="M772.46,813.12c-.44-.06-.91-.08-1.39-.08-.58,0-1.13-.03-1.65-.1-.98-.12-1.98-.21-2.97-.27-1-.06-2.01-.09-2.98-.09-1.03,0-2.1.03-3.16.09-1.05.06-2.08.15-3.07.27-.7.07-1.35.12-1.99.15-.61.03-1.24.08-1.88.14h-.09c-.68,0-1.21-.48-1.3-1.19-.1-.68.25-1.27.88-1.5l.08-.03h.09c2.15-.36,3.98-1.08,5.42-2.16,1.42-1.06,2.52-2.61,3.29-4.59,2.26-5.89,4.42-11.84,6.42-17.68,2.03-5.9,4.05-11.87,6.08-17.9,1.49-4.4,3.04-8.89,4.61-13.35,1.58-4.48,3.14-8.89,4.69-13.25.18-.57.68-.94,1.3-.94s1.12.37,1.31.97c.29.84.61,1.73.97,2.65.35.92.69,1.88,1,2.85,1.59,4.59,3.3,9.45,5.09,14.42,1.78,4.95,3.65,9.96,5.58,14.89,1.91,4.9,3.92,9.83,5.98,14.66,2.04,4.79,4.21,9.46,6.45,13.88.91,1.73,2.04,2.99,3.35,3.73,1.36.77,3,1.24,4.88,1.41h0c.54,0,1.17.47,1.17,1.37s-.64,1.37-1.27,1.37l-2.1.09c-.51.04-1.06.06-1.61.06-.28,0-.56,0-.84-.02-.86-.03-1.67-.12-2.41-.25-.52-.05-1.15-.11-1.8-.18-.65-.06-1.24-.09-1.78-.09-1.46,0-2.95.05-4.41.14-1.46.09-2.93.2-4.39.32-.35.07-.76.1-1.21.1-.33,0-.6.02-.83.06-.12.03-.24.05-.36.05-.44,0-1.02-.26-1.21-1-.17-.62.04-1.21.57-1.59l.07-.05,4.09-1.98c-1.31-3.63-2.68-7.34-4.07-11.03-1.39-3.68-2.78-7.46-4.15-11.24h-17.57c-.39,1.03-.91,2.43-1.53,4.18-.77,2.16-1.53,4.43-2.27,6.73-.74,2.3-1.39,4.53-1.95,6.62-.67,2.51-.82,3.73-.82,4.31,0,.39.09.69.27.91.25.3.54.54.89.72.38.2.81.34,1.27.41.55.09,1.06.17,1.53.23l.87.11v2.76l-1.13-.14ZM790.74,780.26l-6.58-22.4c-.21.66-.41,1.31-.6,1.95-1.18,3.7-2.31,7.37-3.35,10.91-.91,3.11-1.92,6.31-3.01,9.54h13.54Z"/>
      <path class="cls-2" d="M772.46,813.12c-.44-.06-.91-.08-1.39-.08-.58,0-1.13-.03-1.65-.1-.98-.12-1.98-.21-2.97-.27-1-.06-2.01-.09-2.98-.09-1.03,0-2.1.03-3.16.09-1.05.06-2.08.15-3.07.27-.7.07-1.35.12-1.99.15-.61.03-1.24.08-1.88.14h-.09c-.68,0-1.21-.48-1.3-1.19-.1-.68.25-1.27.88-1.5l.08-.03h.09c2.15-.36,3.98-1.08,5.42-2.16,1.42-1.06,2.52-2.61,3.29-4.59,2.26-5.89,4.42-11.84,6.42-17.68,2.03-5.9,4.05-11.87,6.08-17.9,1.49-4.4,3.04-8.89,4.61-13.35,1.58-4.48,3.14-8.89,4.69-13.25.18-.57.68-.94,1.3-.94s1.12.37,1.31.97c.29.84.61,1.73.97,2.65.35.92.69,1.88,1,2.85,1.59,4.59,3.3,9.45,5.09,14.42,1.78,4.95,3.65,9.96,5.58,14.89,1.91,4.9,3.92,9.83,5.98,14.66,2.04,4.79,4.21,9.46,6.45,13.88.91,1.73,2.04,2.99,3.35,3.73,1.36.77,3,1.24,4.88,1.41h0c.54,0,1.17.47,1.17,1.37s-.64,1.37-1.27,1.37l-2.1.09c-.51.04-1.06.06-1.61.06-.28,0-.56,0-.84-.02-.86-.03-1.67-.12-2.41-.25-.52-.05-1.15-.11-1.8-.18-.65-.06-1.24-.09-1.78-.09-1.46,0-2.95.05-4.41.14-1.46.09-2.93.2-4.39.32-.35.07-.76.1-1.21.1-.33,0-.6.02-.83.06-.12.03-.24.05-.36.05-.44,0-1.02-.26-1.21-1-.17-.62.04-1.21.57-1.59l.07-.05,4.09-1.98c-1.31-3.63-2.68-7.34-4.07-11.03-1.39-3.68-2.78-7.46-4.15-11.24h-17.57c-.39,1.03-.91,2.43-1.53,4.18-.77,2.16-1.53,4.43-2.27,6.73-.74,2.3-1.39,4.53-1.95,6.62-.67,2.51-.82,3.73-.82,4.31,0,.39.09.69.27.91.25.3.54.54.89.72.38.2.81.34,1.27.41.55.09,1.06.17,1.53.23l.87.11v2.76l-1.13-.14ZM790.74,780.26l-6.58-22.4c-.21.66-.41,1.31-.6,1.95-1.18,3.7-2.31,7.37-3.35,10.91-.91,3.11-1.92,6.31-3.01,9.54h13.54Z"/>
    </g>
    <g>
      <path class="cls-4" d="M886.98,814.07c-.35,0-.69-.15-.94-.42-8.04-7.21-15.83-15.08-23.09-23.34-7.24-8.23-14.46-16.65-21.47-25.01-1.2-1.44-2.26-2.73-3.19-3.89-.5-.62-1.04-1.28-1.62-1.96-.03.37-.06.73-.09,1.09-.09,1.09-.13,2.22-.13,3.37,0,3.17.06,6.37.18,9.52,0,0,.59,16.18.72,19.35.12,3.18.18,6.42.18,9.64,0,1.54.1,2.73.29,3.55.17.75.4,1.3.69,1.64.28.33.58.55.92.68.46.17.97.31,1.51.42.68.13,1.4.31,2.15.54.83.26,1.7.74,2.57,1.43l.05.04.05.05c.34.36.48.82.39,1.29-.13.63-.65,1.05-1.3,1.05l-2.58-.19c-.84-.06-1.71-.16-2.58-.29-1.03-.12-2.11-.23-3.2-.32-1.07-.09-2.17-.14-3.27-.14-1.44,0-2.93.09-4.44.27-1.45.17-2.95.38-4.45.62l-.07.04-.33.02c-.23,0-.79-.08-1.13-.78-.27-.56-.19-1.16.22-1.59l.04-.04.04-.04c.62-.52,1.19-.95,1.7-1.28l1.43-.93,1.56-.91c.36-.21.69-.5.96-.86.28-.36.51-.85.68-1.44.18-.62.27-1.45.27-2.47v-2.61c0-1.14-.03-2.5-.09-4.16-.06-3.45-.11-7.63-.13-12.43-.03-4.85-.04-9.8-.04-14.83,0-3.42.01-6.72.04-9.89.03-3.16.09-6.03.18-8.51.09-2.55.21-4.56.36-6.17.22-2.31.57-3.04,1.02-3.42l.08-.07.1-.05c.26-.14.52-.21.77-.21.36,0,.69.14.94.39,8.83,9.47,17.5,18.96,25.78,28.24,7.74,8.68,15.6,17.69,23.38,26.81-.01-7.03-.1-14.16-.27-21.22-.18-7.71-.27-15.53-.27-23.24,0-1.44-.13-2.57-.4-3.37-.24-.73-.56-1.28-.94-1.63-.37-.34-.76-.55-1.18-.64l-1.79-.37c-.54-.12-1.06-.23-1.57-.32-.72-.12-1.37-.44-1.93-.94-.48-.48-.55-1.12-.25-1.66.24-.42.66-.67,1.13-.67.11,0,.22.01.33.04,1.71.18,3.41.38,5.12.6,1.05.13,2.12.2,3.17.2.6,0,1.21-.02,1.81-.07l3.11-.28c.57-.06,1.18-.14,1.82-.23.33-.05.65-.07.96-.07.39,0,.78.04,1.15.11.3,0,.68.02,1.13.05.45.03.78.04,1.01.04h.89l.28,2.31-.61.32c-.26.14-.54.21-.82.21-.58.23-1.17.42-1.81.61-.56.17-1.09.38-1.57.63-.4.21-.7.47-.94.81-.21.29-.31.64-.31,1.06v7.65c0,2.54.03,5.11.09,7.62.06,2.6.09,5.18.09,7.67v7.65c0,5.62-.08,11.32-.22,16.95-.15,5.62-.47,11.37-.94,17.08,0,.38-.25.81-.68,1.09-.23.14-.47.22-.72.22Z"/>
      <path class="cls-2" d="M886.98,814.07c-.35,0-.69-.15-.94-.42-8.04-7.21-15.83-15.08-23.09-23.34-7.24-8.23-14.46-16.65-21.47-25.01-1.2-1.44-2.26-2.73-3.19-3.89-.5-.62-1.04-1.28-1.62-1.96-.03.37-.06.73-.09,1.09-.09,1.09-.13,2.22-.13,3.37,0,3.17.06,6.37.18,9.52,0,0,.59,16.18.72,19.35.12,3.18.18,6.42.18,9.64,0,1.54.1,2.73.29,3.55.17.75.4,1.3.69,1.64.28.33.58.55.92.68.46.17.97.31,1.51.42.68.13,1.4.31,2.15.54.83.26,1.7.74,2.57,1.43l.05.04.05.05c.34.36.48.82.39,1.29-.13.63-.65,1.05-1.3,1.05l-2.58-.19c-.84-.06-1.71-.16-2.58-.29-1.03-.12-2.11-.23-3.2-.32-1.07-.09-2.17-.14-3.27-.14-1.44,0-2.93.09-4.44.27-1.45.17-2.95.38-4.45.62l-.07.04-.33.02c-.23,0-.79-.08-1.13-.78-.27-.56-.19-1.16.22-1.59l.04-.04.04-.04c.62-.52,1.19-.95,1.7-1.28l1.43-.93,1.56-.91c.36-.21.69-.5.96-.86.28-.36.51-.85.68-1.44.18-.62.27-1.45.27-2.47v-2.61c0-1.14-.03-2.5-.09-4.16-.06-3.45-.11-7.63-.13-12.43-.03-4.85-.04-9.8-.04-14.83,0-3.42.01-6.72.04-9.89.03-3.16.09-6.03.18-8.51.09-2.55.21-4.56.36-6.17.22-2.31.57-3.04,1.02-3.42l.08-.07.1-.05c.26-.14.52-.21.77-.21.36,0,.69.14.94.39,8.83,9.47,17.5,18.96,25.78,28.24,7.74,8.68,15.6,17.69,23.38,26.81-.01-7.03-.1-14.16-.27-21.22-.18-7.71-.27-15.53-.27-23.24,0-1.44-.13-2.57-.4-3.37-.24-.73-.56-1.28-.94-1.63-.37-.34-.76-.55-1.18-.64l-1.79-.37c-.54-.12-1.06-.23-1.57-.32-.72-.12-1.37-.44-1.93-.94-.48-.48-.55-1.12-.25-1.66.24-.42.66-.67,1.13-.67.11,0,.22.01.33.04,1.71.18,3.41.38,5.12.6,1.05.13,2.12.2,3.17.2.6,0,1.21-.02,1.81-.07l3.11-.28c.57-.06,1.18-.14,1.82-.23.33-.05.65-.07.96-.07.39,0,.78.04,1.15.11.3,0,.68.02,1.13.05.45.03.78.04,1.01.04h.89l.28,2.31-.61.32c-.26.14-.54.21-.82.21-.58.23-1.17.42-1.81.61-.56.17-1.09.38-1.57.63-.4.21-.7.47-.94.81-.21.29-.31.64-.31,1.06v7.65c0,2.54.03,5.11.09,7.62.06,2.6.09,5.18.09,7.67v7.65c0,5.62-.08,11.32-.22,16.95-.15,5.62-.47,11.37-.94,17.08,0,.38-.25.81-.68,1.09-.23.14-.47.22-.72.22Z"/>
    </g>
    <g>
      <path class="cls-4" d="M932.98,814.53c-2.59,0-5.31-.46-8.09-1.36-2.74-.89-5.46-2.14-8.08-3.73-2.61-1.58-5.12-3.47-7.45-5.62-2.33-2.15-4.42-4.49-6.21-6.96-1.8-2.49-3.25-5.14-4.28-7.88-1.05-2.77-1.58-5.62-1.58-8.47,0-6.14.55-11.53,1.64-16,1.1-4.54,2.94-8.45,5.46-11.62,2.52-3.18,5.86-5.81,9.9-7.83,3.99-1.98,8.94-3.63,14.72-4.88.29-.07.61-.12.93-.12h.8c5.3,0,10.31,1.03,14.89,3.07,4.57,2.03,8.6,4.87,11.99,8.43,3.38,3.56,6.07,7.79,7.98,12.58,1.92,4.79,2.89,10.01,2.89,15.52,0,5.03-.98,9.74-2.91,13.98-1.92,4.23-4.54,7.94-7.77,11.03-3.24,3.09-7.04,5.53-11.31,7.24-4.27,1.72-8.82,2.59-13.52,2.59ZM932.45,745.89c-4,0-7.58.77-10.64,2.28-3.07,1.51-5.7,3.59-7.8,6.17-2.12,2.6-3.74,5.68-4.83,9.18-1.1,3.52-1.65,7.33-1.65,11.31s.6,8.16,1.79,12.21c1.18,4.04,2.94,7.7,5.22,10.89,2.26,3.17,5.08,5.79,8.38,7.79,3.25,1.98,7.03,2.98,11.24,2.98,3.93,0,7.46-.79,10.49-2.36,3.05-1.57,5.64-3.71,7.72-6.35,2.09-2.65,3.68-5.77,4.75-9.28,1.07-3.53,1.61-7.31,1.61-11.23s-.59-8.13-1.75-12.12c-1.16-3.98-2.87-7.62-5.09-10.8-2.2-3.17-4.97-5.77-8.23-7.73-3.22-1.95-6.99-2.93-11.2-2.93Z"/>
      <path class="cls-2" d="M932.98,814.53c-2.59,0-5.31-.46-8.09-1.36-2.74-.89-5.46-2.14-8.08-3.73-2.61-1.58-5.12-3.47-7.45-5.62-2.33-2.15-4.42-4.49-6.21-6.96-1.8-2.49-3.25-5.14-4.28-7.88-1.05-2.77-1.58-5.62-1.58-8.47,0-6.14.55-11.53,1.64-16,1.1-4.54,2.94-8.45,5.46-11.62,2.52-3.18,5.86-5.81,9.9-7.83,3.99-1.98,8.94-3.63,14.72-4.88.29-.07.61-.12.93-.12h.8c5.3,0,10.31,1.03,14.89,3.07,4.57,2.03,8.6,4.87,11.99,8.43,3.38,3.56,6.07,7.79,7.98,12.58,1.92,4.79,2.89,10.01,2.89,15.52,0,5.03-.98,9.74-2.91,13.98-1.92,4.23-4.54,7.94-7.77,11.03-3.24,3.09-7.04,5.53-11.31,7.24-4.27,1.72-8.82,2.59-13.52,2.59ZM932.45,745.89c-4,0-7.58.77-10.64,2.28-3.07,1.51-5.7,3.59-7.8,6.17-2.12,2.6-3.74,5.68-4.83,9.18-1.1,3.52-1.65,7.33-1.65,11.31s.6,8.16,1.79,12.21c1.18,4.04,2.94,7.7,5.22,10.89,2.26,3.17,5.08,5.79,8.38,7.79,3.25,1.98,7.03,2.98,11.24,2.98,3.93,0,7.46-.79,10.49-2.36,3.05-1.57,5.64-3.71,7.72-6.35,2.09-2.65,3.68-5.77,4.75-9.28,1.07-3.53,1.61-7.31,1.61-11.23s-.59-8.13-1.75-12.12c-1.16-3.98-2.87-7.62-5.09-10.8-2.2-3.17-4.97-5.77-8.23-7.73-3.22-1.95-6.99-2.93-11.2-2.93Z"/>
    </g>
  </g>
  <rect x="110.54" y="834.14" width="858.92" height="45.74" rx="6.92" ry="6.92"/>
  <g>
    <path class="cls-3" d="M632.15,358.12c-19.25-46.99-37.75-94.28-56.96-141.29-2.87-7.04-5.13-17.02-15.15-16.7-9.66.3-11.55,9.8-14.76,17.08-33.59,76.34-59.88,155.69-95.29,231.27-1.33,2.85-2.37,5.58.63,7.97,3.27,2.62,5.31.17,7.82-1.7,12.22-9.09,23.66-19.95,37.2-26.29,5.65-2.65,9.59-5.7,12.58-9.54l46.01-117.11,37.74,82c10.82-4.09,21.87-7.65,32.9-11.14,8.17-2.59,10.93-5.64,7.28-14.55Z"/>
    <path class="cls-4" d="M508.22,418.92c2.47-3.17,4.29-6.87,5.87-11.32,8.63-24.24,18.19-48.15,27.37-72.19,1.4.09,2.8.19,4.19.28,5.44,15.08,11.28,30.03,16.16,45.29,3.19,9.96,7.65,12.18,17.64,7.87,4.13-1.78,8.31-3.45,12.52-5.04l-37.74-82-46.01,117.11Z"/>
  </g>
  <path class="cls-4" d="M645.07,499.16c-6.37,8.11-12.76,16.2-19.14,24.29-5.89,7.47-6.19,14.37-2.45,23.78,16.01,40.24,30.32,81.16,46.21,121.45,5.82,14.75,6.25,25.63-12.16,30,4.15,4.67,8.36,5.65,12.78,5.69,23.16.22,46.33.43,69.49.62l-94.72-205.81h0Z"/>
  <path class="cls-3" d="M820.53,693.67c-42.93,3.41-60.61-26.23-74.71-58.58-22.72-52.14-44.33-104.78-65.47-157.59-5.4-13.48-9.49-11.56-16.64-2.28-6.17,8.02-12.39,15.99-18.64,23.94h0s94.72,205.83,94.72,205.83c25.8.22,51.6.41,77.4.56,4.74.03,11.27.76,12.32-5.44.94-5.54-4.66-6.79-8.99-6.44Z"/>
  <g>
    <path class="cls-1" d="M133.67,867.54v2.1l-2.31.54.93-5.66h2.27l-.15,5.54c-2.34,1.3-4.91,1.83-7.51,1.83-7.51,0-12.57-5.58-12.57-13.38s5.28-13.38,12.53-13.38c2.01,0,4.65.34,7.18,1.83l.15,5.54h-2.27l-.93-5.66,2.31.54v2.33c-2.12-2.03-4.2-2.68-5.99-2.68-5.02,0-9.07,4.01-9.07,11.47s3.64,11.47,8.81,11.47c2.12,0,4.5-.65,6.62-2.45Z"/>
    <path class="cls-1" d="M137.72,847.24v-1.53h5.21v2.1h-.37l-4.83-.57ZM142.93,869.22v2.1h-5.21v-1.53l4.83-.57h.37ZM141.26,857.56c0-3.94,0-7.91-.11-11.85h3.57c-.11,3.86-.11,7.84-.11,11.85v1.45c0,4.4,0,8.37.11,12.31h-3.57c.11-3.86.11-7.84.11-11.85v-1.91ZM153.23,845.71l1.67,1.91h-11.97v-1.91h13.28l.26,6.8h-2.08l-1.15-6.8ZM151.33,859.13h-8.4v-1.76h8.4v1.76ZM157.21,864.52l-.26,6.8h-14.02v-1.91h12.72l-1.67,1.91,1.15-6.8h2.08ZM150.14,857.75l.56-4.05h1.67v9.06h-1.67l-.56-4.24v-.76Z"/>
    <path class="cls-1" d="M160,869.79l3.9-.57h.74l4.28.57v1.53h-8.92v-1.53ZM162.34,846.9l2.31.92-4.46-.57v-1.53h5.58l15.43,21.83v4.05h-1.19l-17.66-24.69ZM163.16,845.71l1.86,1.53v24.08h-1.86v-25.61ZM175.43,845.71h8.92v1.53l-3.72.57h-.74l-4.46-.57v-1.53ZM179.34,845.71h1.86v25.88l-1.86-1.91v-23.97Z"/>
    <path class="cls-1" d="M188.19,847.62l1.67-1.91-1.19,6.8h-2.08l.3-6.8h20.3l.3,6.8h-2.08l-1.19-6.8,1.67,1.91h-17.7ZM197.41,869.22l5.21.57v1.53h-11.16v-1.53l5.21-.57h.74ZM195.37,857.56c0-3.94,0-7.91-.11-11.85h3.57c-.11,3.86-.11,7.84-.11,11.85v1.91c0,3.94,0,7.91.11,11.85h-3.57c.11-3.86.11-7.84.11-11.85v-1.91Z"/>
    <path class="cls-1" d="M209.91,847.24v-1.53h5.21v2.1h-.37l-4.83-.57ZM215.49,869.22l4.83.57v1.53h-10.41v-1.53l4.83-.57h.74ZM213.44,857.56c0-3.94,0-7.91-.11-11.85h3.57c-.11,3.98-.11,7.72-.11,12.23v1.15c0,4.32,0,8.29.11,12.23h-3.57c.11-3.86.11-7.84.11-11.85v-1.91ZM215.12,857.75h4.65c4.02,0,5.95-2.22,5.95-5.31s-1.67-4.97-5.54-4.97h-5.06v-1.76h5.09c5.69,0,9.04,2.48,9.04,6.73,0,3.25-2.49,6.19-7.36,6.61l.11-.31c2.68.27,4.31,1.53,5.32,4.97l1.82,6.35-1.15-.73,3.83.46v1.53c-.67.23-1.56.38-2.68.38-2.31,0-3.31-.61-3.76-2.37l-1.52-6.23c-.74-3.1-2.12-3.63-5.21-3.63h-3.53v-1.72Z"/>
    <path class="cls-1" d="M256.14,858.52c0,8.37-5.58,13.38-11.34,13.38s-11.38-4.66-11.38-13.38,5.65-13.38,11.38-13.38,11.34,4.66,11.34,13.38ZM244.8,869.98c5.24,0,7.44-5.73,7.44-11.47s-2.19-11.47-7.44-11.47-7.47,5.73-7.47,11.47,2.23,11.47,7.47,11.47Z"/>
    <path class="cls-1" d="M268.3,847.24v-1.53h5.21v2.1h-.37l-4.83-.57ZM273.51,869.22v2.1h-5.21v-1.53l4.83-.57h.37ZM271.83,857.56c0-3.94,0-7.91-.11-11.85h3.57c-.11,3.86-.11,7.84-.11,11.85v1.45c0,4.4,0,8.37.11,12.31h-3.57c.11-3.86.11-7.84.11-12.31v-1.45ZM273.51,869.56h4.8c5.84,0,9.04-4.05,9.04-11.01s-3.2-11.08-8.7-11.08h-5.13v-1.76h5.76c7.07,0,11.97,4.51,11.97,12.84s-5.5,12.77-12.72,12.77h-5.02v-1.76Z"/>
    <path class="cls-1" d="M293.59,847.24v-1.53h5.21v2.1h-.37l-4.83-.57ZM298.8,869.22v2.1h-5.21v-1.53l4.83-.57h.37ZM297.12,857.56c0-3.94,0-7.91-.11-11.85h3.57c-.11,3.86-.11,7.84-.11,11.85v1.45c0,4.4,0,8.37.11,12.31h-3.57c.11-3.86.11-7.84.11-11.85v-1.91ZM309.1,845.71l1.67,1.91h-11.97v-1.91h13.28l.26,6.8h-2.08l-1.15-6.8ZM307.2,859.13h-8.4v-1.76h8.4v1.76ZM313.08,864.52l-.26,6.8h-14.02v-1.91h12.72l-1.67,1.91,1.15-6.8h2.08ZM306.01,857.75l.56-4.05h1.67v9.06h-1.67l-.56-4.24v-.76Z"/>
    <path class="cls-1" d="M324.76,847.24v-1.53h5.21v2.1h-.37l-4.83-.57ZM329.96,869.22v2.1h-5.21v-1.53l4.83-.57h.37ZM328.29,857.56c0-3.94,0-7.91-.11-11.85h3.57c-.11,3.86-.11,7.84-.11,11.85v1.45c0,4.4,0,8.37.11,12.31h-3.57c.11-3.86.11-7.84.11-11.85v-1.91ZM340.26,845.71l1.67,1.91h-11.97v-1.91h13.28l.26,6.8h-2.08l-1.15-6.8ZM338.37,859.13h-8.4v-1.76h8.4v1.76ZM344.24,864.52l-.26,6.8h-14.02v-1.91h12.72l-1.67,1.91,1.15-6.8h2.08ZM337.18,857.75l.56-4.05h1.67v9.06h-1.67l-.56-4.24v-.76Z"/>
    <path class="cls-1" d="M347.03,869.79l3.9-.57h.74l4.28.57v1.53h-8.92v-1.53ZM349.38,846.9l2.31.92-4.46-.57v-1.53h5.58l15.43,21.83v4.05h-1.19l-17.66-24.69ZM350.2,845.71l1.86,1.53v24.08h-1.86v-25.61ZM362.47,845.71h8.92v1.53l-3.72.57h-.74l-4.46-.57v-1.53ZM366.37,845.71h1.86v25.88l-1.86-1.91v-23.97Z"/>
    <path class="cls-1" d="M386.98,865.32c0-2.48-1.45-3.59-4.69-4.89l-1.41-.57c-3.79-1.53-6.4-3.75-6.4-7.65,0-4.4,3.61-7.07,8.33-7.07,2.49,0,4.46.8,6.06,2.03l-.22,4.97h-2.23l-1.04-5.77,2.38,1.26v1.91c-1.82-1.83-3.2-2.48-5.17-2.48-2.9,0-5.09,1.49-5.09,4.36,0,2.41,1.52,3.82,4.24,4.89l1.45.57c4.91,1.95,6.8,4.17,6.8,7.76,0,4.51-3.68,7.26-8.78,7.26-2.79,0-5.5-.92-7.21-2.03l.22-5.35h2.23l.97,5.89-2.42-1.07v-1.83c2.31,1.72,3.57,2.48,6.1,2.48,3.53,0,5.88-1.68,5.88-4.66Z"/>
    <path class="cls-1" d="M392.78,847.24v-1.53h5.21v2.1h-.37l-4.83-.57ZM397.99,869.22v2.1h-5.21v-1.53l4.83-.57h.37ZM396.31,857.56c0-3.94,0-7.91-.11-11.85h3.57c-.11,3.86-.11,7.84-.11,11.85v1.45c0,4.4,0,8.37.11,12.31h-3.57c.11-3.86.11-7.84.11-11.85v-1.91ZM408.29,845.71l1.67,1.91h-11.97v-1.91h13.28l.26,6.8h-2.08l-1.15-6.8ZM406.39,859.13h-8.4v-1.76h8.4v1.76ZM412.27,864.52l-.26,6.8h-14.02v-1.91h12.72l-1.67,1.91,1.15-6.8h2.08ZM405.2,857.75l.56-4.05h1.67v9.06h-1.67l-.56-4.24v-.76Z"/>
    <path class="cls-1" d="M415.06,869.79l3.9-.57h.74l4.28.57v1.53h-8.92v-1.53ZM417.4,846.9l2.31.92-4.46-.57v-1.53h5.58l15.43,21.83v4.05h-1.19l-17.66-24.69ZM418.22,845.71l1.86,1.53v24.08h-1.86v-25.61ZM424.76,838.72c1.38,0,2.19.61,3.05,1.3.93.8,1.71,1.87,2.83,1.87,1.26,0,1.97-1.18,2.57-3.1l1.08.34c-.48,2.94-1.56,4.89-3.87,4.89-1.38,0-2.23-.61-3.05-1.3-.93-.8-1.71-1.87-2.83-1.87-1.23,0-1.97,1.19-2.57,3.1l-1.08-.34c.45-2.94,1.6-4.89,3.87-4.89ZM430.49,845.71h8.92v1.53l-3.72.57h-.74l-4.46-.57v-1.53ZM434.39,845.71h1.86v25.88l-1.86-1.91v-23.97Z"/>
    <path class="cls-1" d="M439.6,869.79l3.72-.57h.74l4.09.57v1.53h-8.55v-1.53ZM450.68,845.52h2.23l8.55,25.8h-3.46l-7.47-22.9h.85l-7.59,22.9h-1.75l8.63-25.8ZM446.33,861.19h10.04l.6,1.76h-11.23l.59-1.76ZM453.66,869.79l4.69-.57h.74l4.61.57v1.53h-10.04v-1.53Z"/>
    <path class="cls-1" d="M465.19,869.79l3.9-.57h.74l4.28.57v1.53h-8.92v-1.53ZM467.53,846.9l2.31.92-4.46-.57v-1.53h5.58l15.43,21.83v4.05h-1.19l-17.66-24.69ZM468.35,845.71l1.86,1.53v24.08h-1.86v-25.61ZM480.62,845.71h8.92v1.53l-3.72.57h-.74l-4.46-.57v-1.53ZM484.53,845.71h1.86v25.88l-1.86-1.91v-23.97Z"/>
    <path class="cls-1" d="M509.93,845.71v1.34l-15.39,24.27h-2.75v-1.34l15.43-24.27h2.71ZM492.15,852.52l.3-6.8h16.21v1.91h-14.91l2.05-1.91-1.41,6.8h-2.23ZM510.75,864.52l-.3,6.8h-17.37v-1.91h16.06l-2.05,1.91,1.41-6.8h2.23Z"/>
    <path class="cls-1" d="M511.68,869.79l3.72-.57h.74l4.09.57v1.53h-8.55v-1.53ZM522.76,845.52h2.23l8.55,25.8h-3.46l-7.47-22.9h.85l-7.59,22.9h-1.75l8.63-25.8ZM518.41,861.19h10.04l.6,1.76h-11.23l.59-1.76ZM525.74,869.79l4.69-.57h.74l4.61.57v1.53h-10.04v-1.53Z"/>
    <path class="cls-1" d="M545.04,869.79l3.72-.57h.74l4.09.57v1.53h-8.55v-1.53ZM556.12,845.52h2.23l8.55,25.8h-3.46l-7.47-22.9h.85l-7.59,22.9h-1.75l8.63-25.8ZM551.77,861.19h10.04l.6,1.76h-11.23l.59-1.76ZM559.1,869.79l4.69-.57h.74l4.61.57v1.53h-10.04v-1.53Z"/>
    <path class="cls-1" d="M568.4,847.24v-1.53h10.41v1.53l-4.83.57h-.74l-4.83-.57ZM581.11,869.22c4.28,0,6.43-2.48,6.43-9.33v-14.18h1.86v15.17c0,8.03-3.79,11.01-8.81,11.01-5.39,0-9.04-3.1-9.04-10.21v-4.13c0-3.94,0-7.91-.11-11.85h3.57c-.11,3.86-.11,7.84-.11,11.85v3.02c0,6.57,2.42,8.64,6.21,8.64ZM587.81,847.81l-4.09-.57v-1.53h8.92v1.53l-4.09.57h-.74Z"/>
    <path class="cls-1" d="M595.92,847.62l1.67-1.91-1.19,6.8h-2.08l.3-6.8h20.3l.3,6.8h-2.08l-1.19-6.8,1.67,1.91h-17.7ZM605.14,869.22l5.21.57v1.53h-11.16v-1.53l5.21-.57h.74ZM603.09,857.56c0-3.94,0-7.91-.11-11.85h3.57c-.11,3.86-.11,7.84-.11,11.85v1.91c0,3.94,0,7.91.11,11.85h-3.57c.11-3.86.11-7.84.11-11.85v-1.91Z"/>
    <path class="cls-1" d="M640.1,858.52c0,8.37-5.58,13.38-11.34,13.38s-11.38-4.66-11.38-13.38,5.65-13.38,11.38-13.38,11.34,4.66,11.34,13.38ZM628.75,869.98c5.24,0,7.44-5.73,7.44-11.47s-2.19-11.47-7.44-11.47-7.47,5.73-7.47,11.47,2.23,11.47,7.47,11.47Z"/>
    <path class="cls-1" d="M642.63,845.71h4.91v2.1h-.45l-4.46-.57v-1.53ZM642.63,869.79l3.9-.57h.74l3.64.57v1.53h-8.29v-1.53ZM645.98,845.71h1.56l.33,11.39v14.22h-1.9v-25.61ZM646.01,845.71h3.31l9.11,22.93h-1.26l8.63-22.93h1.97l-9.71,25.61h-1.82l-10.23-25.61ZM662.97,869.79l4.46-.57h.74l4.83.57v1.53h-10.04v-1.53ZM666.2,859.47v-13.76h3.38c-.11,3.86-.11,7.84-.11,11.85v1.91c0,3.94,0,7.91.11,11.85h-3.5c.11-3.86.11-7.84.11-11.85ZM667.8,845.71h5.21v1.53l-4.83.57h-.37v-2.1Z"/>
    <path class="cls-1" d="M698.26,858.52c0,8.37-5.58,13.38-11.34,13.38s-11.38-4.66-11.38-13.38,5.65-13.38,11.38-13.38,11.34,4.66,11.34,13.38ZM686.92,869.98c5.24,0,7.44-5.73,7.44-11.47s-2.19-11.47-7.44-11.47-7.47,5.73-7.47,11.47,2.23,11.47,7.47,11.47Z"/>
    <path class="cls-1" d="M703.96,847.81l-4.83-.57v-1.53h10.04v1.72l-4.46.38h-.74ZM701.32,845.71h3.57l7.44,21.71h-.78l7.14-21.71h2.01l-8.52,25.88h-1.49l-9.37-25.88ZM718.42,847.81l-3.72-.38v-1.72h8.59v1.53l-4.13.57h-.74Z"/>
    <path class="cls-1" d="M725.34,847.24v-1.53h10.41v1.53l-4.83.57h-.74l-4.83-.57ZM730.92,869.22l4.83.57v1.53h-10.41v-1.53l4.83-.57h.74ZM728.88,857.56c0-3.94,0-7.91-.11-11.85h3.57c-.11,3.86-.11,7.84-.11,11.85v1.91c0,3.94,0,7.91.11,11.85h-3.57c.11-3.86.11-7.84.11-11.85v-1.91Z"/>
    <path class="cls-1" d="M739.1,847.24v-1.53h10.41v1.53l-4.83.57h-.74l-4.83-.57ZM744.31,869.22v2.1h-5.21v-1.53l4.83-.57h.37ZM742.52,845.71h3.57c-.11,3.94-.11,7.91-.11,11.85v2.68c0,3.25,0,7.22.11,11.08h-3.57c.11-3.94.11-7.91.11-11.85v-1.91c0-4.01,0-7.99-.11-11.85ZM757.96,864.13l-.37,7.19h-13.28v-1.91h11.97l-2.04,1.91,1.49-7.19h2.23Z"/>
    <path class="cls-1" d="M760.56,847.24v-1.53h10.41v1.53l-4.83.57h-.74l-4.83-.57ZM766.14,869.22l4.83.57v1.53h-10.41v-1.53l4.83-.57h.74ZM764.09,857.56c0-3.94,0-7.91-.11-11.85h3.57c-.11,3.86-.11,7.84-.11,11.85v1.91c0,3.94,0,7.91.11,11.85h-3.57c.11-3.86.11-7.84.11-11.85v-1.91Z"/>
    <path class="cls-1" d="M787.11,865.32c0-2.48-1.45-3.59-4.69-4.89l-1.41-.57c-3.79-1.53-6.4-3.75-6.4-7.65,0-4.4,3.61-7.07,8.33-7.07,2.49,0,4.46.8,6.06,2.03l-.22,4.97h-2.23l-1.04-5.77,2.38,1.26v1.91c-1.82-1.83-3.2-2.48-5.17-2.48-2.9,0-5.09,1.49-5.09,4.36,0,2.41,1.52,3.82,4.24,4.89l1.45.57c4.91,1.95,6.8,4.17,6.8,7.76,0,4.51-3.68,7.26-8.78,7.26-2.79,0-5.5-.92-7.21-2.03l.22-5.35h2.23l.97,5.89-2.42-1.07v-1.83c2.31,1.72,3.57,2.48,6.1,2.48,3.53,0,5.88-1.68,5.88-4.66Z"/>
    <path class="cls-1" d="M793.59,847.62l1.67-1.91-1.19,6.8h-2.08l.3-6.8h20.3l.3,6.8h-2.08l-1.19-6.8,1.67,1.91h-17.7ZM802.81,869.22l5.21.57v1.53h-11.16v-1.53l5.21-.57h.74ZM800.76,857.56c0-3.94,0-7.91-.11-11.85h3.57c-.11,3.86-.11,7.84-.11,11.85v1.91c0,3.94,0,7.91.11,11.85h-3.57c.11-3.86.11-7.84.11-11.85v-1.91Z"/>
    <path class="cls-1" d="M815.31,847.24v-1.53h10.41v1.53l-4.83.57h-.74l-4.83-.57ZM820.88,869.22l4.83.57v1.53h-10.41v-1.53l4.83-.57h.74ZM818.84,857.56c0-3.94,0-7.91-.11-11.85h3.57c-.11,3.86-.11,7.84-.11,11.85v1.91c0,3.94,0,7.91.11,11.85h-3.57c.11-3.86.11-7.84.11-11.85v-1.91Z"/>
    <path class="cls-1" d="M847.59,867.54v2.1l-2.31.54.93-5.66h2.27l-.15,5.54c-2.34,1.3-4.91,1.83-7.51,1.83-7.51,0-12.57-5.58-12.57-13.38s5.28-13.38,12.53-13.38c2.01,0,4.65.34,7.18,1.83l.15,5.54h-2.27l-.93-5.66,2.31.54v2.33c-2.12-2.03-4.2-2.68-5.99-2.68-5.02,0-9.07,4.01-9.07,11.47s3.64,11.47,8.81,11.47c2.12,0,4.5-.65,6.62-2.45Z"/>
    <path class="cls-1" d="M850.16,869.79l3.72-.57h.74l4.09.57v1.53h-8.55v-1.53ZM861.24,845.52h2.23l8.55,25.8h-3.46l-7.47-22.9h.85l-7.59,22.9h-1.75l8.63-25.8ZM856.89,861.19h10.04l.6,1.76h-11.23l.59-1.76ZM864.21,869.79l4.69-.57h.74l4.61.57v1.53h-10.04v-1.53Z"/>
    <path class="cls-1" d="M897.79,865.32c0-2.48-1.45-3.59-4.69-4.89l-1.41-.57c-3.79-1.53-6.4-3.75-6.4-7.65,0-4.4,3.61-7.07,8.33-7.07,2.49,0,4.46.8,6.06,2.03l-.22,4.97h-2.23l-1.04-5.77,2.38,1.26v1.91c-1.82-1.83-3.2-2.48-5.17-2.48-2.9,0-5.09,1.49-5.09,4.36,0,2.41,1.52,3.82,4.24,4.89l1.45.57c4.91,1.95,6.8,4.17,6.8,7.76,0,4.51-3.68,7.26-8.78,7.26-2.79,0-5.5-.92-7.21-2.03l.22-5.35h2.23l.97,5.89-2.42-1.07v-1.83c2.31,1.72,3.57,2.48,6.1,2.48,3.53,0,5.88-1.68,5.88-4.66Z"/>
    <path class="cls-1" d="M904.53,869.14c0-1.49,1.15-2.71,2.6-2.71s2.6,1.22,2.6,2.71-1.15,2.68-2.6,2.68-2.6-1.22-2.6-2.68Z"/>
    <path class="cls-1" d="M912.9,869.79l3.72-.57h.74l4.09.57v1.53h-8.55v-1.53ZM923.98,845.52h2.23l8.55,25.8h-3.46l-7.47-22.9h.85l-7.59,22.9h-1.75l8.63-25.8ZM919.63,861.19h10.04l.6,1.76h-11.23l.59-1.76ZM926.95,869.79l4.69-.57h.74l4.61.57v1.53h-10.04v-1.53Z"/>
    <path class="cls-1" d="M940.34,869.14c0-1.49,1.15-2.71,2.6-2.71s2.6,1.22,2.6,2.71-1.15,2.68-2.6,2.68-2.6-1.22-2.6-2.68Z"/>
    <path class="cls-1" d="M962.99,865.32c0-2.48-1.45-3.59-4.69-4.89l-1.41-.57c-3.79-1.53-6.4-3.75-6.4-7.65,0-4.4,3.61-7.07,8.33-7.07,2.49,0,4.46.8,6.06,2.03l-.22,4.97h-2.23l-1.04-5.77,2.38,1.26v1.91c-1.82-1.83-3.2-2.48-5.17-2.48-2.9,0-5.09,1.49-5.09,4.36,0,2.41,1.52,3.82,4.24,4.89l1.45.57c4.91,1.95,6.8,4.17,6.8,7.76,0,4.51-3.68,7.26-8.78,7.26-2.79,0-5.5-.92-7.21-2.03l.22-5.35h2.23l.97,5.89-2.42-1.07v-1.83c2.31,1.72,3.57,2.48,6.1,2.48,3.53,0,5.88-1.68,5.88-4.66Z"/>
  </g>
  <path d="M766.55,348.07c-116.6,16.34-225,54.47-320.2,128.09-77,59.55-139.66,132.22-188.97,217.45-4.02,6.95-6.41,12.04-4.75,15.14,2.38,4.44,10.95,3.73,13.9,3.52,17.6-1.24,61.27-1.7,108.3-1.76.41-5,1.1-10.44,2.23-16.23,2.31-11.89,5.77-21.91,9.14-29.81h33.14c-2.31,7.32-4.56,14.95-6.71,22.88-2.16,7.94-4.08,15.67-5.8,23.19,60.63.14,118.39.79,125.73,1.16,3.59.18,5.51.15,9.35.08,12.47-.23,19.02.05,22.5-3.24,3.4-3.21,3.92-9.62,5.23-22.41,10.64-103.86,49.94-193.52,123.75-266.21,25.73-25.34,53.59-47.91,82.54-68.91-3.23-5.16-6.56-3.32-9.4-2.92ZM432.93,633.31c-3,6.38-5.7,12.59-8.14,18.6h-32.57c2.39-6.27,5.29-13.02,8.86-20.07,5.21-10.31,10.75-19.16,16-26.57,10,.3,20,.59,30,.89-4.75,8.28-9.52,17.33-14.14,27.16ZM467.66,571.38c-4.35,6.85-8.34,13.53-12.02,20.02-9.95-.39-19.9-.79-29.86-1.18,3.58-6.87,8.03-14.43,13.57-22.29,4.19-5.94,8.4-11.19,12.43-15.79,9.38.3,18.76.59,28.14.89-4.06,5.77-8.16,11.89-12.27,18.36ZM502.78,527.05c-3.18,3.83-6.08,7.59-8.71,11.22h-28.43c2.61-4.31,5.94-9.16,10.14-14.17,3.74-4.46,7.46-8.17,10.86-11.22,9.43.25,18.86.49,28.29.74-3.94,4-8.02,8.47-12.14,13.43ZM538.21,491.48c-4.23,4.19-7.93,8.33-11.14,12.25-9.71-.2-19.43-.39-29.14-.59,2.5-2.88,5.26-5.85,8.29-8.86,4.61-4.58,9.14-8.54,13.43-11.96,9.19.3,18.38.59,27.57.89-2.91,2.47-5.93,5.22-9,8.27ZM569.07,466.68c-2.23,1.82-4.42,3.64-6.57,5.46-9.67-.44-19.33-.89-29-1.33,3.77-4.01,8.26-8.25,13.57-12.4,2.43-1.9,4.83-3.62,7.14-5.17,10,.49,20,.98,30,1.48-4.99,3.8-10.05,7.79-15.14,11.96ZM605.21,437.6c-3.5,3.3-6.98,6.6-10.43,9.89-9.38-.34-18.76-.69-28.14-1.03,2.2-2.55,4.76-5.25,7.71-7.97,4.05-3.74,8-6.74,11.57-9.15,9.05.3,18.1.59,27.14.89-2.62,2.45-5.23,4.91-7.86,7.38ZM632.93,417.53c-1.62,1.43-3.19,2.86-4.71,4.28-8.86-.54-17.71-1.08-26.57-1.62,2.45-2.56,5.49-5.39,9.16-8.19,3.62-2.76,7.07-4.91,10.13-6.57,8.67.25,17.33.49,26,.74-4.57,3.41-9.26,7.19-14,11.36ZM663.5,398.05h-22.57c3.95-2.72,7.9-5.44,11.86-8.15,7.52.06,15.05.12,22.57.18l-11.86,7.97ZM684.71,385.8c-6.39-.48-12.79-.96-19.18-1.44,2.64-2.14,5.29-4.28,7.93-6.42l18.64.89-7.39,6.97ZM702.36,373.99c-4.19-.44-8.38-.89-12.57-1.33l6.57-3.99h13.71c-2.57,1.77-5.14,3.54-7.71,5.31Z"/>
</svg>