<?xml version="1.0" encoding="UTF-8"?>
<svg id="Capa_1" data-name="Capa 1" xmlns="http://www.w3.org/2000/svg" viewBox="0 0 1080 1080">
  <defs>
    <style>
      .cls-1 {
        stroke-width: 1.34px;
      }

      .cls-1, .cls-2, .cls-3 {
        stroke-miterlimit: 10;
      }

      .cls-1, .cls-4, .cls-3 {
        fill: #e42621;
      }

      .cls-1, .cls-3 {
        stroke: #e42821;
      }

      .cls-2 {
        fill: #1d1d1b;
        stroke: #1e1d1f;
        stroke-width: .68px;
      }

      .cls-3 {
        stroke-width: 1.32px;
      }
    </style>
  </defs>
  <path d="M250.13,458.6c.39.07,1.06.6,1.36.94,45.56,58.01-5.53,137.01-52.92,175.7-1.41,1.15-6.1,4.98-7.39,5.53-2.58,1.11-7.95-4.02-10.05-5.77-13.27-11.08-26.46-25.53-37.02-39.21-2.98-3.86-5.79-7.9-8.33-12.07h-44.29c.29,2.83,1.61,6.02,1.63,8.85,0,1.15-.29.93-1.27.73l-37.41-20.04,37.87-19.59c1.16-.24.81.52.78,1.32-.1,2.68-1.63,5.59-1.6,8.34h104.95c3.72,0,14.14-3.55,17.81-5.28,36.19-16.97,43.36-66.52,13.6-93.26-1.41-1.26-5.04-3.32-5.9-4.3-.59-.68-.69-.93-.55-1.86h28.72Z"/>
  <path class="cls-4" d="M316.97,440.87l-36.8,18.78-1.32-.25c-.13-2.71,3.5-8.98-.23-9.41-8.84-1.02-18.55.49-27.38.59-21.61.24-45.98-1.61-67.15-.05-47.86,3.54-67.62,65.6-32.26,98.07.73.67,7.67,5.32,6.77,6.11l-38.58-.61c-10.31-24.7-12.41-52.51-1.61-77.44,10.93-25.21,34.83-42.29,61.93-45.98,33.33-1.18,66.76-.25,100.12-.54.49-.49-1.28-7.66-1.51-8.97-.15-.86-.22-.73.72-.72l36.41,18.89.89,1.52Z"/>
  <path class="cls-4" d="M221.48,492.9c.34.22,1.06,0,1.54.07.23-1.08-.47-4.37.31-4.9,1.6-1.09,8.07-1.84,9.32.4.82,2.83-6.76,3.24-7.49,5.4s1.18,1.71,2.13,2.6c2.15,2.02,3.52,6.76,3.78,9.65.33,3.65.62,16.15,0,19.31-.23,1.16-1.26,1.48-1.49,2.26-.83,2.69,1.52,6.43-3.13,6.97-3.91-1.35-11.5.68-14.87-.45-1.6-.54-1.38-3.31-1.5-4.67-3.15-.13-5.92-2.52-8.76-2.78-8.02-.75-20.26-.6-27.55,2.02-.93.34-3.72.56-3.86.71-.61.64,1.53,4.16-2.47,4.78-1.76.27-14.86.24-15.81-.22s-1.37-2.27-1.56-3.28c-1.37-7.22-2.58-27.83,2.07-33.67.84-1.06,2.97-.58,2.74-2.77-.33-3.2-8.43-2.68-7.51-5.86.78-2.15,8.1-1.33,9.12-.64,1.13.76-.16,5.69,1.31,5.66.95-.02,4.98-11.1,6.05-12.73,1.42-2.17,5.43-2.52,7.92-2.82,11.29-1.35,25.75-1.6,36.97.05,1.6.24,5.17.86,6.44,1.61,2.82,1.68,5.12,12.54,6.3,13.29ZM218.73,495.65c.42-.42-2.93-10.15-3.49-11.28-1.67-3.38-5.71-4.34-9.19-4.77-8.25-1.03-19.54-.85-27.85-.05-2.18.21-9.89,1.2-11.41,1.97-.84.43-1.63,2-2.02,2.86-.46,1.02-3.49,9.44-3.48,9.97.02.79.25.9.91,1.19,1.15.51,6.84,1.11,8.45,1.21,11.59.71,28.75.78,40.31,0,2.59-.18,5.14-1.15,7.77-1.1ZM208.8,511.76c1.76.48,8.32,0,10.74,0,2.58,0,9.96-7.29,5.83-9.56-4.28,1.92-13.3,2.15-15.99,5.84-.5.69-2.19,3.28-.58,3.72ZM170.23,507.11c-1.48-1.43-15.51-5.44-16.46-4.48.1,6.23,3.5,8.72,9.38,9.15,3.88.28,12.87.9,7.09-4.67Z"/>
  <path d="M383,516.05v10.74h34.89v13.42h-34.89c-.07,2.59.08,5.21.03,7.81-.02.76-.99,3.47.24,3.47h41.07v12.89h-56.91v-61.75h56.1c.06,0,.81.75.81.81v11.81c0,.06-.75.81-.81.81h-40.53Z"/>
  <path class="cls-4" d="M673.97,530.56c.18-.12,5.04,0,5.43,0,2.31,0,5.5-.34,7.06-2.44,1.47-1.97,1.41-5.98.69-8.33-2.03-6.62-20.12-3.78-25.53-3.73v47.52c0,.06-.75.81-.81.81h-13.42c-.2,0-.87-.55-1.26-.63l-.12-.7s1.38-60.96,1.38-60.96c11.15,0,22.31,0,33.46,0,5.7,0,11.41.95,15.92,4.84,6.66,5.75,8.75,18.18,2.15,24.68-1.25,1.23-6.19,3.63-6.19,4.55l15.6,26.89c.12.45-.6,1.32-.81,1.32h-13.96c-1.23-1-1.99-2.31-2.85-3.6-4.17-6.25-13.68-21.27-16.33-27.7-.35-.86-.54-1.59-.42-2.53Z"/>
  <path class="cls-4" d="M564.45,502.63v12.62c0,.06-.75.81-.81.81h-34.89c-2.43,0-6.75,2.09-7.9,4.45-3.24,6.68.5,11.55,7.37,12.19,9.92.91,24.19-2.4,32.42,4.08,7.26,5.72,4.52,17.28-2.15,22.46-2.49,1.94-10.09,5.15-13.11,5.15h-39.73c-.06,0-.81-.75-.81-.81v-11.28c0-.18.71-.82.54-1.34h35.7c2.47,0,6.69-2.93,7.49-5.4,2.02-6.22-.71-10.52-7.02-11.18-9.85-1.03-36.18,3.6-37.67-11.77-1.22-12.59,10.67-19.19,21.61-20,12.76-.94,26.15.72,38.94.02Z"/>
  <path d="M362.06,502.63c.47,4.6,1.12,9.42,0,13.96h-26.04c-11.5,0-17.12,13.94-13.97,23.63,1.59,4.87,6.9,10.73,12.36,10.73h27.65c.61,4.4,1.03,9.08,0,13.42h-29.26c-2.97,0-9.54-2.82-12.24-4.4-22.08-12.87-20.65-44.19,3.02-54.22,2.37-1,8.51-3.12,10.83-3.12h27.65Z"/>
  <polygon points="502.72 564.38 486.34 564.38 466.48 532.17 446.89 564.38 430.24 564.38 466.48 503.13 502.72 564.38"/>
  <path class="cls-4" d="M642.83,564.38h-16.37l-19.33-32.22c-.8.5-1.56,1.45-2.09,2.2-6.57,9.33-11.75,20.57-18.3,30.02h-16.37l35.71-61.75,36.77,61.75Z"/>
  <path d="M911.26,564.91v-6.44h17.45c2.56,0,5.08-6.81-1.06-7.53-4.51-.53-10,1.1-14.2-1.37-5.12-3.02-2.84-10.42,2.12-12.3,4.38-1.66,8.68-1.35,13.26-1.35,3.18,0,6.36,0,9.54,0,1.19,0,1.19,6.44,0,6.44h-16.11c-3.92,0-6.36,6.62-1.04,7.49,5.63.92,19.2-2.44,17.91,7.77-.46,3.62-5.29,7.3-8.81,7.3h-19.06Z"/>
  <path d="M1020.23,542.36h-16.91c-.17,0-2.81,1.13-3,1.43-.63.97-.9,4.48.04,5.29,1.74,1.49,9.36.53,12.08.81,6.85.69,11.22,5.93,5.92,11.81-1.54,1.71-4.75,3.21-6.99,3.21h-19.06c.22-1.4-.54-5.48.5-6.21,3.09-2.15,19.19,3.16,19.89-3.77.66-6.57-10-3.63-13.63-4.04-5.76-.66-9.48-4.65-6.15-10.33,1.92-3.26,6.88-4.34,10.4-4.64,3.21-.27,12.73-.53,15.56,0,2.39.44,1,4.54,1.34,6.44Z"/>
  <path d="M975.95,564.91c-2.08-1.19-8.27-14.49-9.13-14.5s-.85.35-1.25.89c-1.54,2.1-6.87,12.58-8.14,13.34-1.43.86-5.67-.06-7.51.27-.15-.77.14-1.32.42-1.99,1.74-4.11,6.79-11.68,9.34-15.89,1.81-2.99,3.9-7,5.89-9.68.33-.45.51-1.07,1.25-.89l15.31,26.31c2.21.55-.11-2.91,1.14-3.69.31-.19,5.95-.19,6.56,0,1.58.52,1.04,5.83.07,5.83h-13.96Z"/>
  <path d="M947.68,559.08c.8.5.8,5.25,0,5.76-.53.33-6.2.24-6.67-.43s-.48-4.65.27-5.17c.51-.35,5.99-.42,6.4-.16Z"/>
  <g>
    <path class="cls-2" d="M318.38,593.42l3.38.37c-.22,2.02-1,3.69-2.35,5s-3.12,1.96-5.31,1.96c-1.85,0-3.35-.46-4.5-1.39-1.15-.93-2.04-2.19-2.66-3.78-.62-1.59-.93-3.34-.93-5.26,0-3.08.73-5.59,2.19-7.52s3.47-2.9,6.03-2.9c2.01,0,3.67.62,5.01,1.85,1.33,1.23,2.17,3,2.52,5.3l-3.38.36c-.62-3.05-2-4.58-4.12-4.58-1.36,0-2.42.63-3.18,1.9-.76,1.27-1.13,3.11-1.13,5.52s.4,4.3,1.21,5.55c.81,1.25,1.88,1.87,3.22,1.87,1.07,0,1.98-.42,2.73-1.26.75-.84,1.18-1.84,1.27-3.01Z"/>
    <path class="cls-2" d="M342.92,600.44h-13.14v-20.22h13.01v3.01h-9.36v5.48h7.53v2.93h-7.53v5.66h9.5v3.14Z"/>
    <path class="cls-2" d="M366.46,600.44h-3.54l-7.67-12.92c-.12-.2-.31-.52-.58-.96-.12-.2-.3-.51-.55-.93v14.82h-2.93v-20.22h4.03l7.08,11.91c.06.1.49.82,1.29,2.18v-14.09h2.87v20.22Z"/>
    <path class="cls-2" d="M383.1,600.44h-3.91v-17.1h-5.38v-3.13h14.67v3.13h-5.38v17.1Z"/>
    <path class="cls-2" d="M411.6,600.44h-3.85l-3.14-8.31h-5.13v8.31h-3.64v-20.22h8.77c2.44,0,4.23.55,5.38,1.65,1.15,1.1,1.72,2.53,1.72,4.27,0,2.6-1.22,4.39-3.65,5.36l3.54,8.93ZM399.48,589.21h4.53c1.31,0,2.29-.28,2.93-.83.64-.55.96-1.31.96-2.28,0-.89-.32-1.61-.95-2.16s-1.52-.82-2.65-.82h-4.83v6.09Z"/>
    <path class="cls-2" d="M427.64,600.75c-2.69,0-4.78-1.01-6.27-3.02-1.5-2.01-2.24-4.5-2.24-7.47s.79-5.41,2.39-7.39c1.59-1.98,3.69-2.97,6.3-2.97s4.7.99,6.23,2.97c1.53,1.98,2.29,4.46,2.29,7.43,0,3.12-.79,5.64-2.38,7.56-1.59,1.92-3.69,2.88-6.3,2.88ZM427.67,597.82c1.31,0,2.42-.54,3.33-1.63.91-1.09,1.36-3.06,1.36-5.91,0-2.32-.38-4.14-1.13-5.46-.75-1.32-1.92-1.98-3.5-1.98-3.12,0-4.68,2.51-4.68,7.54,0,2.44.4,4.29,1.19,5.55s1.93,1.89,3.42,1.89Z"/>
    <path class="cls-2" d="M450.84,600.44v-20.22h7.45c2.76,0,4.97.98,6.64,2.93s2.5,4.36,2.5,7.22-.86,5.26-2.58,7.19-4.18,2.89-7.38,2.89h-6.64ZM454.59,597.47h3.04c1.63,0,3.01-.61,4.15-1.84,1.14-1.23,1.7-3.05,1.7-5.47,0-1.98-.5-3.65-1.49-5.02-.99-1.37-2.3-2.05-3.93-2.05h-3.47v14.37Z"/>
    <path class="cls-2" d="M489.08,600.44h-13.14v-20.22h13.01v3.01h-9.36v5.48h7.53v2.93h-7.53v5.66h9.5v3.14Z"/>
    <path class="cls-2" d="M517.92,600.44h-13.14v-20.22h13.01v3.01h-9.36v5.48h7.53v2.93h-7.53v5.66h9.5v3.14Z"/>
    <path class="cls-2" d="M541.46,600.44h-3.54l-7.67-12.92c-.12-.2-.31-.52-.58-.96-.12-.2-.3-.51-.55-.93v14.82h-2.93v-20.22h4.03l7.08,11.91c.06.1.49.82,1.29,2.18v-14.09h2.87v20.22Z"/>
    <path class="cls-2" d="M548.91,595.57l3.54-.76c.42,2.01,2.05,3.01,4.89,3.01,1.29,0,2.29-.26,2.99-.77.7-.51,1.04-1.15,1.04-1.91,0-.55-.16-1.06-.47-1.53-.32-.47-.99-.84-2.03-1.1l-3.87-1.01c-1.32-.35-2.3-.74-2.93-1.18-.63-.44-1.14-1.06-1.52-1.86-.38-.8-.57-1.65-.57-2.56,0-1.81.67-3.26,2.02-4.35,1.34-1.09,3.06-1.64,5.16-1.64,1.74,0,3.29.38,4.66,1.14,1.37.76,2.24,1.84,2.61,3.23l-3.47.86c-.53-1.53-1.78-2.3-3.73-2.3-1.14,0-2,.24-2.6.71s-.9,1.08-.9,1.81c0,1.16.94,1.97,2.81,2.43l3.44.86c2.08.52,3.48,1.3,4.19,2.32.71,1.02,1.07,2.15,1.07,3.39,0,1.99-.75,3.55-2.24,4.69-1.5,1.14-3.43,1.71-5.81,1.71-2.01,0-3.76-.42-5.27-1.26-1.51-.84-2.51-2.15-3-3.93Z"/>
    <path class="cls-2" d="M586.64,600.44h-13.14v-20.22h13.01v3.01h-9.36v5.48h7.53v2.93h-7.53v5.66h9.5v3.14Z"/>
    <path class="cls-2" d="M610.18,600.44h-3.54l-7.67-12.92c-.12-.2-.31-.52-.58-.96-.12-.2-.3-.51-.55-.93v14.82h-2.93v-20.22h4.03l7.08,11.91c.06.1.49.82,1.29,2.18v-14.09h2.87v20.22ZM606.63,574.74l1.04,1.53c-.24.49-.67.91-1.3,1.24-.63.33-1.2.5-1.69.5-.6,0-1.35-.23-2.25-.7-.68-.36-1.18-.53-1.51-.53-.46,0-1.09.38-1.87,1.16l-1.02-1.53c.92-1.14,1.91-1.7,2.98-1.7.51,0,1.18.19,2,.58.89.41,1.55.62,1.99.62.6,0,1.15-.39,1.64-1.16Z"/>
    <path class="cls-2" d="M635.62,600.44h-3.9l-1.62-4.81h-7.78l-1.58,4.81h-3.11l6.71-20.22h4.49l6.78,20.22ZM629.13,592.71l-2.95-9.02-2.95,9.02h5.9Z"/>
    <path class="cls-2" d="M658.46,600.44h-3.54l-7.67-12.92c-.12-.2-.31-.52-.58-.96-.12-.2-.3-.51-.55-.93v14.82h-2.93v-20.22h4.03l7.08,11.91c.06.1.49.82,1.29,2.18v-14.09h2.87v20.22Z"/>
    <path class="cls-2" d="M681.36,597.3v3.14h-14.95v-2.87l10.36-14.46h-9.63v-2.89h13.93v2.89l-10.24,14.19h10.53Z"/>
    <path class="cls-2" d="M705.19,600.44h-3.9l-1.62-4.81h-7.78l-1.58,4.81h-3.11l6.71-20.22h4.49l6.78,20.22ZM698.7,592.71l-2.95-9.02-2.95,9.02h5.9Z"/>
    <path class="cls-2" d="M734.71,600.44h-3.9l-1.62-4.81h-7.78l-1.58,4.81h-3.11l6.71-20.22h4.49l6.78,20.22ZM728.23,592.71l-2.95-9.02-2.95,9.02h5.9Z"/>
    <path class="cls-2" d="M755.52,580.22v12.99c0,1.76-.2,3.11-.59,4.06-.4.95-1.16,1.77-2.29,2.45-1.13.69-2.51,1.03-4.14,1.03s-3.01-.3-4.07-.89c-1.06-.59-1.82-1.41-2.29-2.44s-.7-2.35-.7-3.95v-13.26h3.72v12.99c0,1.78.37,2.95,1.12,3.5.75.56,1.61.84,2.6.84,1.14,0,2.04-.3,2.73-.9s1.02-1.75,1.02-3.45v-12.99h2.89Z"/>
    <path class="cls-2" d="M771.88,600.44h-3.91v-17.1h-5.38v-3.13h14.67v3.13h-5.38v17.1Z"/>
    <path class="cls-2" d="M791.63,600.75c-2.69,0-4.78-1.01-6.28-3.02-1.5-2.01-2.24-4.5-2.24-7.47s.79-5.41,2.39-7.39c1.59-1.98,3.69-2.97,6.3-2.97s4.7.99,6.23,2.97c1.53,1.98,2.29,4.46,2.29,7.43,0,3.12-.79,5.64-2.38,7.56-1.58,1.92-3.69,2.88-6.3,2.88ZM791.66,597.82c1.31,0,2.42-.54,3.33-1.63.91-1.09,1.36-3.06,1.36-5.91,0-2.32-.37-4.14-1.13-5.46-.75-1.32-1.92-1.98-3.5-1.98-3.12,0-4.68,2.51-4.68,7.54,0,2.44.4,4.29,1.19,5.55.79,1.26,1.93,1.89,3.41,1.89Z"/>
    <path class="cls-2" d="M828.67,600.44h-3.72v-17.71l-5.6,17.71h-1.91l-5.63-17.71v17.71h-2.98v-20.22h5.7l4.24,13.02,4.16-13.02h5.73v20.22Z"/>
    <path class="cls-2" d="M845.71,600.75c-2.69,0-4.78-1.01-6.28-3.02-1.5-2.01-2.24-4.5-2.24-7.47s.79-5.41,2.39-7.39c1.59-1.98,3.69-2.97,6.3-2.97s4.7.99,6.23,2.97c1.53,1.98,2.29,4.46,2.29,7.43,0,3.12-.79,5.64-2.38,7.56-1.58,1.92-3.69,2.88-6.3,2.88ZM845.74,597.82c1.31,0,2.42-.54,3.33-1.63.91-1.09,1.36-3.06,1.36-5.91,0-2.32-.37-4.14-1.13-5.46-.75-1.32-1.92-1.98-3.5-1.98-3.12,0-4.68,2.51-4.68,7.54,0,2.44.4,4.29,1.19,5.55.79,1.26,1.93,1.89,3.41,1.89Z"/>
    <path class="cls-2" d="M870.18,600.44h-3.7l-6.24-20.22h3.85l4.64,15.5,4.74-15.5h3.04l-6.33,20.22Z"/>
    <path class="cls-2" d="M887.57,600.44h-3.65v-20.22h3.65v20.22Z"/>
    <path class="cls-2" d="M909.59,600.44h-12.45v-20.22h3.84v16.92h8.61v3.3Z"/>
    <path class="cls-2" d="M923.18,573.77l.98,2.22-6.18,2.61-.62-1.59,5.82-3.24ZM921.04,600.44h-3.65v-20.22h3.65v20.22Z"/>
    <path class="cls-2" d="M928.5,595.57l3.54-.76c.42,2.01,2.05,3.01,4.89,3.01,1.3,0,2.29-.26,2.99-.77.7-.51,1.04-1.15,1.04-1.91,0-.55-.16-1.06-.47-1.53-.32-.47-.99-.84-2.03-1.1l-3.87-1.01c-1.32-.35-2.3-.74-2.93-1.18s-1.14-1.06-1.52-1.86c-.38-.8-.57-1.65-.57-2.56,0-1.81.67-3.26,2.01-4.35,1.34-1.09,3.06-1.64,5.16-1.64,1.74,0,3.29.38,4.66,1.14,1.37.76,2.24,1.84,2.61,3.23l-3.47.86c-.53-1.53-1.78-2.3-3.73-2.3-1.14,0-2,.24-2.6.71s-.9,1.08-.9,1.81c0,1.16.94,1.97,2.82,2.43l3.44.86c2.08.52,3.48,1.3,4.19,2.32.71,1.02,1.07,2.15,1.07,3.39,0,1.99-.75,3.55-2.24,4.69-1.5,1.14-3.43,1.71-5.82,1.71-2,0-3.76-.42-5.27-1.26s-2.51-2.15-3-3.93Z"/>
    <path class="cls-2" d="M960.15,600.44h-3.91v-17.1h-5.38v-3.13h14.67v3.13h-5.38v17.1Z"/>
    <path class="cls-2" d="M976.52,600.44h-3.65v-20.22h3.65v20.22Z"/>
    <path class="cls-2" d="M997.4,593.42l3.38.37c-.22,2.02-1,3.69-2.35,5s-3.12,1.96-5.31,1.96c-1.85,0-3.35-.46-4.5-1.39-1.15-.93-2.04-2.19-2.66-3.78-.62-1.59-.93-3.34-.93-5.26,0-3.08.73-5.59,2.19-7.52,1.46-1.93,3.47-2.9,6.03-2.9,2,0,3.67.62,5.01,1.85,1.33,1.23,2.17,3,2.52,5.3l-3.38.36c-.62-3.05-2-4.58-4.12-4.58-1.36,0-2.42.63-3.18,1.9-.75,1.27-1.13,3.11-1.13,5.52s.41,4.3,1.22,5.55c.81,1.25,1.88,1.87,3.22,1.87,1.07,0,1.98-.42,2.73-1.26.75-.84,1.18-1.84,1.27-3.01Z"/>
    <path class="cls-2" d="M1024.51,600.44h-3.9l-1.62-4.81h-7.78l-1.58,4.81h-3.11l6.71-20.22h4.49l6.78,20.22ZM1018.03,592.71l-2.95-9.02-2.95,9.02h5.9Z"/>
  </g>
  <path class="cls-3" d="M799.77,564.29v-48.77h-19.23v-11.33h52.38v11.33h-19.23v48.77h-13.91Z"/>
  <path class="cls-1" d="M745.26,565.34c-4.83,0-9.28-.79-13.35-2.36-4.07-1.57-7.62-3.78-10.64-6.63-3.03-2.85-5.37-6.19-7.02-10.03s-2.49-8.03-2.49-12.56.83-8.8,2.49-12.61c1.66-3.81,4-7.14,7.02-9.99,3.02-2.85,6.56-5.06,10.6-6.63,4.04-1.57,8.48-2.36,13.31-2.36s9.26.77,13.31,2.31c4.04,1.54,7.58,3.74,10.6,6.59,3.02,2.85,5.37,6.19,7.02,10.03,1.66,3.84,2.49,8.06,2.49,12.65s-.83,8.74-2.49,12.61c-1.66,3.87-4,7.23-7.02,10.08-3.02,2.85-6.56,5.05-10.6,6.59-4.04,1.54-8.45,2.31-13.22,2.31ZM745.17,553.38c2.73,0,5.25-.48,7.55-1.44,2.3-.96,4.32-2.33,6.06-4.1,1.75-1.77,3.1-3.84,4.06-6.19.96-2.36,1.44-4.99,1.44-7.9s-.48-5.54-1.44-7.9c-.96-2.36-2.31-4.42-4.06-6.2-1.74-1.77-3.77-3.14-6.06-4.1-2.3-.96-4.81-1.44-7.55-1.44s-5.26.48-7.59,1.44c-2.33.96-4.35,2.33-6.06,4.1-1.72,1.77-3.05,3.84-4.01,6.2-.96,2.36-1.44,4.99-1.44,7.9s.48,5.54,1.44,7.9c.96,2.36,2.3,4.42,4.01,6.19,1.71,1.78,3.74,3.14,6.06,4.1,2.33.96,4.86,1.44,7.59,1.44Z"/>
  <path class="cls-1" d="M870.88,565.34c-4.83,0-9.28-.79-13.35-2.36-4.07-1.57-7.62-3.78-10.64-6.63-3.03-2.85-5.37-6.19-7.02-10.03s-2.49-8.03-2.49-12.56.83-8.8,2.49-12.61c1.66-3.81,4-7.14,7.02-9.99,3.02-2.85,6.56-5.06,10.6-6.63,4.04-1.57,8.48-2.36,13.31-2.36s9.26.77,13.31,2.31c4.04,1.54,7.58,3.74,10.6,6.59,3.02,2.85,5.37,6.19,7.02,10.03,1.66,3.84,2.49,8.06,2.49,12.65s-.83,8.74-2.49,12.61c-1.66,3.87-4,7.23-7.02,10.08-3.02,2.85-6.56,5.05-10.6,6.59-4.04,1.54-8.45,2.31-13.22,2.31ZM870.79,553.38c2.73,0,5.25-.48,7.55-1.44,2.3-.96,4.32-2.33,6.06-4.1,1.75-1.77,3.1-3.84,4.06-6.19.96-2.36,1.44-4.99,1.44-7.9s-.48-5.54-1.44-7.9c-.96-2.36-2.31-4.42-4.06-6.2-1.74-1.77-3.77-3.14-6.06-4.1-2.3-.96-4.81-1.44-7.55-1.44s-5.26.48-7.59,1.44c-2.33.96-4.35,2.33-6.06,4.1-1.72,1.77-3.05,3.84-4.01,6.2-.96,2.36-1.44,4.99-1.44,7.9s.48,5.54,1.44,7.9c.96,2.36,2.3,4.42,4.01,6.19,1.71,1.78,3.74,3.14,6.06,4.1,2.33.96,4.86,1.44,7.59,1.44Z"/>
</svg>