<?xml version="1.0" encoding="UTF-8"?>
<svg xmlns="http://www.w3.org/2000/svg" xmlns:xlink="http://www.w3.org/1999/xlink" viewBox="0 0 1080 219.09">
  <defs>
    <style>
      .cls-1 {
        fill: #898989;
      }

      .cls-2 {
        stroke: #002e79;
        stroke-width: 4.84px;
      }

      .cls-2, .cls-3 {
        fill: none;
        stroke-linecap: round;
        stroke-linejoin: round;
      }

      .cls-4 {
        fill: #fff;
      }

      .cls-3 {
        stroke: #003e99;
        stroke-width: 3.65px;
      }

      .cls-5 {
        fill: #0f365f;
      }

      .cls-6 {
        isolation: isolate;
      }

      .cls-7 {
        fill: url(#linear-gradient);
        mix-blend-mode: screen;
      }

      .cls-8 {
        fill: #002e79;
      }

      .cls-9 {
        fill: #0c519f;
      }
    </style>
    <linearGradient id="linear-gradient" x1="13.75" y1="123.67" x2="79.65" y2="123.67" gradientUnits="userSpaceOnUse">
      <stop offset="0" stop-color="#fff"/>
      <stop offset="1" stop-color="#000"/>
    </linearGradient>
  </defs>
  <g class="cls-6">
    <g id="Capa_1" data-name="Capa 1">
      <g>
        <g>
          <g>
            <path class="cls-5" d="M256.62,144.34h-16.58V55.07h65.17v14.03h-48.59v75.24ZM255.35,96.26h44.38v13.77h-44.38v-13.77Z"/>
            <path class="cls-5" d="M359.41,145.61c-6.89,0-13.28-1.15-19.19-3.44-5.91-2.3-11.03-5.53-15.37-9.69-4.34-4.16-7.7-9.03-10.07-14.6-2.38-5.57-3.57-11.62-3.57-18.17s1.19-12.73,3.57-18.3c2.38-5.57,5.74-10.41,10.07-14.54,4.34-4.12,9.44-7.33,15.3-9.63s12.28-3.44,19.26-3.44,13.26,1.13,19.13,3.38c5.87,2.25,10.95,5.44,15.24,9.56,4.29,4.12,7.63,8.99,10.01,14.6,2.38,5.61,3.57,11.73,3.57,18.36s-1.19,12.73-3.57,18.3c-2.38,5.57-5.72,10.44-10.01,14.6-4.29,4.17-9.37,7.38-15.24,9.63-5.87,2.25-12.24,3.38-19.13,3.38ZM359.41,131.07c4.51,0,8.65-.77,12.43-2.3,3.78-1.53,7.08-3.7,9.88-6.5,2.81-2.81,4.99-6.12,6.57-9.95,1.57-3.83,2.36-8.03,2.36-12.63s-.77-8.8-2.3-12.62c-1.53-3.83-3.72-7.14-6.57-9.95-2.85-2.81-6.17-4.97-9.95-6.5-3.78-1.53-7.93-2.3-12.43-2.3s-8.69.77-12.56,2.3c-3.87,1.53-7.21,3.72-10.01,6.57-2.81,2.85-5.02,6.17-6.63,9.95-1.62,3.78-2.42,7.97-2.42,12.56s.81,8.67,2.42,12.5c1.61,3.83,3.83,7.16,6.63,10.01,2.81,2.85,6.14,5.04,10.01,6.57,3.87,1.53,8.05,2.3,12.56,2.3Z"/>
            <path class="cls-5" d="M421.26,144.34V55.07h36.73c7.91,0,14.69,1.26,20.34,3.76,5.65,2.51,10.01,6.14,13.07,10.9,3.06,4.76,4.59,10.46,4.59,17.09s-1.53,12.16-4.59,16.83c-3.06,4.68-7.42,8.29-13.07,10.84-5.66,2.55-12.43,3.83-20.34,3.83h-27.42l7.27-7.4v33.41h-16.58ZM437.84,112.71l-7.27-8.03h26.65c7.31,0,12.82-1.57,16.51-4.72,3.7-3.14,5.55-7.52,5.55-13.14s-1.85-9.97-5.55-13.07c-3.7-3.1-9.2-4.65-16.51-4.65h-26.65l7.27-8.16v51.78ZM479.66,144.34l-22.57-32.39h17.73l22.7,32.39h-17.85Z"/>
            <path class="cls-5" d="M510.78,144.34V55.07h13.65l39.02,65.17h-7.14l38.39-65.17h13.65l.26,89.27h-15.94v-64.66h3.19l-32.39,54.58h-7.52l-33.16-54.58h3.83v64.66h-15.81Z"/>
            <path class="cls-5" d="M616.24,144.34l40.17-89.27h16.32l40.3,89.27h-17.47l-34.43-80.47h6.63l-34.56,80.47h-16.96ZM634.73,123.68l4.59-13.01h48.08l4.46,13.01h-57.13Z"/>
            <path class="cls-5" d="M720.68,144.34V55.07h36.73c7.91,0,14.69,1.26,20.34,3.76,5.65,2.51,10.01,6.14,13.07,10.9,3.06,4.76,4.59,10.46,4.59,17.09s-1.53,12.16-4.59,16.83c-3.06,4.68-7.42,8.29-13.07,10.84-5.66,2.55-12.43,3.83-20.34,3.83h-27.42l7.27-7.4v33.41h-16.58ZM737.26,112.71l-7.27-8.03h26.65c7.31,0,12.82-1.57,16.51-4.72,3.7-3.14,5.55-7.52,5.55-13.14s-1.85-9.97-5.55-13.07c-3.7-3.1-9.2-4.65-16.51-4.65h-26.65l7.27-8.16v51.78ZM779.09,144.34l-22.57-32.39h17.73l22.7,32.39h-17.85Z"/>
          </g>
          <g>
            <path class="cls-5" d="M927.06,147.88c-8.24,0-15.35-1.75-21.31-5.26-5.96-3.51-10.52-8.66-13.68-15.46-3.16-6.8-4.74-15.1-4.74-24.93,0-10.61,1.91-19.55,5.72-26.83,3.81-7.28,9.12-12.8,15.92-16.57,6.8-3.77,14.67-5.66,23.61-5.66,4.47,0,8.83.48,13.09,1.45,4.25.97,7.96,2.41,11.12,4.34l-6.45,13.02c-2.54-1.66-5.28-2.81-8.22-3.42-2.94-.61-6.07-.92-9.41-.92-8.6,0-15.46,2.65-20.59,7.96-5.13,5.31-7.7,13.18-7.7,23.61,0,1.76.07,3.73.2,5.92.13,2.19.5,4.39,1.12,6.58l-5.39-5.66c1.58-3.59,3.75-6.6,6.51-9.01,2.76-2.41,6.05-4.23,9.87-5.46,3.81-1.23,7.96-1.84,12.43-1.84,6.05,0,11.44,1.18,16.18,3.55,4.74,2.37,8.51,5.66,11.31,9.87,2.81,4.21,4.21,9.21,4.21,15s-1.49,11.2-4.47,15.72c-2.98,4.52-7.02,7.98-12.1,10.39-5.09,2.41-10.83,3.62-17.23,3.62ZM926.27,134.46c3.51,0,6.64-.64,9.41-1.91,2.76-1.27,4.87-3.09,6.31-5.46,1.45-2.37,2.17-5.13,2.17-8.29,0-4.74-1.64-8.53-4.93-11.38-3.29-2.85-7.74-4.27-13.35-4.27-3.68,0-6.91.68-9.67,2.04-2.76,1.36-4.93,3.22-6.51,5.59-1.58,2.37-2.37,5.09-2.37,8.16,0,2.81.72,5.39,2.17,7.76,1.45,2.37,3.59,4.25,6.45,5.66,2.85,1.4,6.29,2.11,10.33,2.11Z"/>
            <path class="cls-5" d="M1008.35,147.88c-7.37,0-13.94-1.84-19.73-5.52s-10.37-9.05-13.75-16.11c-3.38-7.06-5.06-15.63-5.06-25.72s1.69-18.66,5.06-25.72c3.37-7.06,7.96-12.43,13.75-16.11,5.79-3.68,12.36-5.52,19.73-5.52s13.81,1.84,19.6,5.52c5.79,3.68,10.37,9.06,13.75,16.11,3.37,7.06,5.06,15.63,5.06,25.72s-1.69,18.66-5.06,25.72c-3.38,7.06-7.96,12.43-13.75,16.11s-12.32,5.52-19.6,5.52ZM1008.35,133.02c4.21,0,7.89-1.16,11.05-3.49,3.16-2.32,5.63-5.9,7.43-10.72,1.8-4.82,2.7-10.92,2.7-18.28s-.9-13.46-2.7-18.28c-1.8-4.82-4.27-8.4-7.43-10.72-3.16-2.32-6.84-3.49-11.05-3.49s-7.91,1.16-11.11,3.49c-3.2,2.32-5.72,5.9-7.56,10.72-1.84,4.82-2.76,10.92-2.76,18.28s.92,13.46,2.76,18.28c1.84,4.82,4.36,8.4,7.56,10.72,3.2,2.32,6.91,3.49,11.11,3.49Z"/>
          </g>
          <path class="cls-5" d="M827.19,124.15c.47,1.32,1.2,2.66,2.18,4.02.99,1.36,2.23,2.59,3.73,3.66,1.5,1.08,3.26,1.95,5.29,2.61,2.02.66,4.34.99,6.98.99s5.1-.37,7.12-1.13c2.02-.75,3.73-1.76,5.14-3.03,1.41-1.27,2.47-2.77,3.17-4.51.7-1.74,1.06-3.59,1.06-5.57s-.49-3.97-1.48-5.71c-.99-1.74-2.37-3.29-4.16-4.65-1.79-1.36-3.97-2.42-6.55-3.17-2.59-.75-5.47-1.13-8.67-1.13h-5.21v-12.97h5.21c3.01,0,5.68-.37,8.03-1.13,2.35-.75,4.32-1.76,5.92-3.03,1.6-1.27,2.82-2.75,3.66-4.44s1.27-3.43,1.27-5.21c0-3.38-1.18-6.25-3.52-8.6-2.35-2.35-6.11-3.52-11.27-3.52-4.23,0-7.71,1.01-10.43,3.03-2.73,2.02-4.56,4.39-5.5,7.12l-14.38-5.92c.75-2.35,2-4.63,3.73-6.84,1.74-2.21,3.9-4.18,6.48-5.92,2.58-1.74,5.64-3.15,9.16-4.23,3.52-1.08,7.49-1.62,11.91-1.62s8.74.63,12.4,1.9c3.66,1.27,6.77,3.03,9.3,5.29,2.54,2.25,4.49,4.91,5.85,7.96,1.36,3.05,2.04,6.32,2.04,9.79,0,2.54-.35,4.89-1.06,7.05-.7,2.16-1.69,4.11-2.96,5.85-1.27,1.74-2.75,3.27-4.44,4.58-1.69,1.32-3.52,2.49-5.5,3.52,2.25.94,4.39,2.07,6.41,3.38,2.02,1.32,3.78,2.91,5.29,4.79,1.5,1.88,2.68,4.07,3.52,6.55.85,2.49,1.27,5.33,1.27,8.53,0,3.85-.78,7.47-2.33,10.85-1.55,3.38-3.73,6.3-6.55,8.74-2.82,2.44-6.27,4.37-10.36,5.78-4.09,1.41-8.58,2.11-13.46,2.11-4.32,0-8.32-.49-11.98-1.48-3.66-.99-6.88-2.4-9.65-4.23-2.77-1.83-5.14-3.99-7.12-6.48-1.97-2.49-3.43-5.29-4.37-8.39l14.8-5.21Z"/>
        </g>
        <path class="cls-1" d="M240.05,171.45c261.41-3.34,530.19-3.25,791.63-.38,0,0,25.54.38,25.54.38l-25.54.38c-261.45,2.87-530.22,2.96-791.63-.38h0Z"/>
        <g>
          <path class="cls-9" d="M175.59,144.82c-36.21,11.77-75.22,11.77-111.43,0v-47.71c36.21,11.76,75.22,11.76,111.43,0v47.71Z"/>
          <path class="cls-7" d="M85.1,102.53c-7.06-1.39-14.05-3.19-20.94-5.43v47.71c6.89,2.24,13.88,4.05,20.94,5.43v-47.71Z"/>
          <path class="cls-3" d="M175.59,144.82c-36.21,11.77-75.22,11.77-111.43,0v-47.71c36.21,11.76,75.22,11.76,111.43,0v47.71Z"/>
          <path class="cls-5" d="M160.05,165l-9.04,20.68c2.26,2.44,5.46,4,9.04,4s6.79-1.56,9.04-4l-9.04-20.68Z"/>
          <polygon class="cls-4" points="119.87 56.89 26.65 94.37 119.87 131.85 213.1 94.37 119.87 56.89"/>
          <polygon class="cls-9" points="119.87 51.16 26.65 88.64 119.87 126.12 213.1 88.64 119.87 51.16"/>
          <polyline class="cls-2" points="119.87 92.67 160.05 115.7 160.05 166.43"/>
          <circle class="cls-8" cx="160.05" cy="170.26" r="5.24"/>
        </g>
      </g>
    </g>
  </g>
</svg>