<?xml version="1.0" encoding="UTF-8"?>
<svg xmlns="http://www.w3.org/2000/svg" xmlns:xlink="http://www.w3.org/1999/xlink" viewBox="0 0 1080 219.09">
  <defs>
    <style>
      .cls-1 {
        fill: #92beff;
      }

      .cls-2 {
        stroke-width: 4.86px;
      }

      .cls-2, .cls-3 {
        fill: none;
        stroke: #92beff;
        stroke-linecap: round;
        stroke-linejoin: round;
      }

      .cls-4 {
        fill: #fff;
      }

      .cls-5 {
        fill: #fbfbfb;
      }

      .cls-6 {
        isolation: isolate;
      }

      .cls-7 {
        fill: url(#linear-gradient);
        mix-blend-mode: screen;
      }

      .cls-3 {
        stroke-width: 3.66px;
      }
    </style>
    <linearGradient id="linear-gradient" x1="9.83" y1="133.47" x2="75.99" y2="133.47" gradientUnits="userSpaceOnUse">
      <stop offset="0" stop-color="#fff"/>
      <stop offset="1" stop-color="#000"/>
    </linearGradient>
  </defs>
  <g class="cls-6">
    <g id="Capa_1" data-name="Capa 1">
      <g>
        <g>
          <g>
            <path class="cls-4" d="M253.62,154.21h-16.64v-89.6h65.41v14.08h-48.77v75.52ZM252.34,105.95h44.55v13.82h-44.55v-13.82Z"/>
            <path class="cls-4" d="M356.79,155.49c-6.91,0-13.33-1.15-19.26-3.46-5.93-2.3-11.07-5.55-15.42-9.73-4.35-4.18-7.72-9.07-10.11-14.66-2.39-5.59-3.58-11.67-3.58-18.24s1.19-12.78,3.58-18.37c2.39-5.59,5.76-10.45,10.11-14.59,4.35-4.14,9.47-7.36,15.36-9.66s12.33-3.46,19.33-3.46,13.31,1.13,19.2,3.39c5.89,2.26,10.99,5.46,15.3,9.6,4.31,4.14,7.66,9.02,10.05,14.66,2.39,5.63,3.58,11.78,3.58,18.43s-1.2,12.78-3.58,18.37c-2.39,5.59-5.74,10.48-10.05,14.66-4.31,4.18-9.41,7.4-15.3,9.66-5.89,2.26-12.29,3.39-19.2,3.39ZM356.79,140.9c4.52,0,8.68-.77,12.48-2.3,3.8-1.54,7.1-3.71,9.92-6.53,2.82-2.82,5.01-6.14,6.59-9.98,1.58-3.84,2.37-8.06,2.37-12.67s-.77-8.83-2.3-12.67c-1.54-3.84-3.73-7.17-6.59-9.98-2.86-2.82-6.19-4.99-9.98-6.53-3.8-1.54-7.96-2.3-12.48-2.3s-8.73.77-12.61,2.3c-3.88,1.54-7.23,3.73-10.05,6.59-2.82,2.86-5.04,6.19-6.66,9.98-1.62,3.8-2.43,8-2.43,12.61s.81,8.7,2.43,12.54c1.62,3.84,3.84,7.19,6.66,10.05,2.82,2.86,6.16,5.06,10.05,6.59,3.88,1.54,8.08,2.3,12.61,2.3Z"/>
            <path class="cls-4" d="M418.87,154.21v-89.6h36.87c7.94,0,14.74,1.26,20.42,3.78,5.67,2.52,10.05,6.17,13.12,10.94,3.07,4.78,4.61,10.5,4.61,17.15s-1.54,12.2-4.61,16.9c-3.07,4.69-7.45,8.32-13.12,10.88-5.68,2.56-12.48,3.84-20.42,3.84h-27.52l7.3-7.42v33.54h-16.64ZM435.51,122.47l-7.3-8.06h26.75c7.34,0,12.86-1.58,16.58-4.74,3.71-3.16,5.57-7.55,5.57-13.18s-1.86-10-5.57-13.12c-3.71-3.11-9.24-4.67-16.58-4.67h-26.75l7.3-8.19v51.97ZM477.5,154.21l-22.66-32.51h17.79l22.78,32.51h-17.92Z"/>
            <path class="cls-4" d="M508.73,154.21v-89.6h13.7l39.17,65.41h-7.17l38.53-65.41h13.7l.26,89.6h-16v-64.9h3.2l-32.51,54.79h-7.55l-33.28-54.79h3.84v64.9h-15.87Z"/>
            <path class="cls-4" d="M614.59,154.21l40.32-89.6h16.38l40.45,89.6h-17.54l-34.56-80.77h6.66l-34.69,80.77h-17.02ZM633.15,133.48l4.61-13.06h48.26l4.48,13.06h-57.35Z"/>
            <path class="cls-4" d="M719.42,154.21v-89.6h36.87c7.94,0,14.74,1.26,20.42,3.78,5.67,2.52,10.05,6.17,13.12,10.94,3.07,4.78,4.61,10.5,4.61,17.15s-1.54,12.2-4.61,16.9c-3.07,4.69-7.45,8.32-13.12,10.88-5.68,2.56-12.48,3.84-20.42,3.84h-27.52l7.3-7.42v33.54h-16.64ZM736.06,122.47l-7.3-8.06h26.75c7.34,0,12.86-1.58,16.58-4.74,3.71-3.16,5.57-7.55,5.57-13.18s-1.86-10-5.57-13.12c-3.71-3.11-9.24-4.67-16.58-4.67h-26.75l7.3-8.19v51.97ZM778.05,154.21l-22.66-32.51h17.79l22.78,32.51h-17.92Z"/>
          </g>
          <g>
            <path class="cls-4" d="M926.57,157.77c-8.27,0-15.4-1.76-21.39-5.28-5.99-3.52-10.56-8.69-13.73-15.51-3.17-6.82-4.75-15.16-4.75-25.02,0-10.65,1.91-19.63,5.74-26.93,3.83-7.31,9.15-12.85,15.98-16.64,6.82-3.78,14.72-5.68,23.7-5.68,4.49,0,8.87.48,13.14,1.45,4.27.97,7.99,2.42,11.16,4.36l-6.47,13.07c-2.55-1.67-5.3-2.82-8.25-3.43-2.95-.61-6.1-.92-9.44-.92-8.63,0-15.51,2.66-20.66,7.99-5.15,5.33-7.72,13.23-7.72,23.7,0,1.76.07,3.74.2,5.94.13,2.2.51,4.4,1.12,6.6l-5.41-5.68c1.58-3.61,3.76-6.62,6.54-9.04,2.77-2.42,6.07-4.25,9.9-5.48,3.83-1.23,7.99-1.85,12.48-1.85,6.07,0,11.49,1.19,16.24,3.56,4.75,2.38,8.54,5.68,11.35,9.9,2.82,4.22,4.22,9.24,4.22,15.05s-1.5,11.25-4.49,15.78c-2.99,4.53-7.04,8.01-12.15,10.43-5.11,2.42-10.87,3.63-17.3,3.63ZM925.78,144.3c3.52,0,6.67-.64,9.44-1.91,2.77-1.27,4.89-3.1,6.34-5.48,1.45-2.38,2.18-5.15,2.18-8.32,0-4.75-1.65-8.56-4.95-11.42-3.3-2.86-7.77-4.29-13.4-4.29-3.7,0-6.93.68-9.7,2.05-2.77,1.37-4.95,3.23-6.54,5.61-1.58,2.38-2.38,5.11-2.38,8.19,0,2.82.73,5.41,2.18,7.79,1.45,2.38,3.61,4.27,6.47,5.68,2.86,1.41,6.32,2.11,10.36,2.11Z"/>
            <path class="cls-4" d="M1008.16,157.77c-7.39,0-14-1.85-19.8-5.55s-10.41-9.09-13.8-16.17c-3.39-7.08-5.08-15.69-5.08-25.81s1.69-18.73,5.08-25.81c3.39-7.08,7.99-12.48,13.8-16.17,5.81-3.7,12.41-5.55,19.8-5.55s13.86,1.85,19.67,5.55,10.41,9.09,13.8,16.17c3.39,7.09,5.08,15.69,5.08,25.81s-1.7,18.73-5.08,25.81c-3.39,7.09-7.99,12.48-13.8,16.17-5.81,3.7-12.37,5.55-19.67,5.55ZM1008.16,142.85c4.23,0,7.92-1.17,11.09-3.5,3.17-2.33,5.65-5.92,7.46-10.76,1.8-4.84,2.71-10.96,2.71-18.35s-.9-13.51-2.71-18.35c-1.81-4.84-4.29-8.43-7.46-10.76-3.17-2.33-6.87-3.5-11.09-3.5s-7.94,1.17-11.16,3.5c-3.21,2.33-5.74,5.92-7.59,10.76-1.85,4.84-2.77,10.96-2.77,18.35s.92,13.51,2.77,18.35c1.85,4.84,4.38,8.43,7.59,10.76,3.21,2.33,6.93,3.5,11.16,3.5Z"/>
          </g>
          <path class="cls-4" d="M826.33,133.95c.47,1.32,1.2,2.67,2.19,4.03.99,1.37,2.24,2.6,3.75,3.68,1.51,1.09,3.28,1.96,5.3,2.62,2.03.66,4.36.99,7,.99s5.11-.38,7.14-1.13c2.03-.75,3.75-1.77,5.16-3.04,1.41-1.27,2.48-2.78,3.18-4.53.71-1.74,1.06-3.61,1.06-5.59s-.5-3.98-1.49-5.73c-.99-1.74-2.38-3.3-4.17-4.67-1.79-1.37-3.99-2.43-6.58-3.18-2.6-.75-5.5-1.13-8.7-1.13h-5.23v-13.01h5.23c3.02,0,5.7-.38,8.06-1.13,2.36-.75,4.34-1.77,5.94-3.04,1.6-1.27,2.83-2.76,3.68-4.46s1.27-3.44,1.27-5.23c0-3.4-1.18-6.27-3.54-8.63-2.36-2.36-6.13-3.54-11.32-3.54-4.24,0-7.73,1.01-10.47,3.04-2.74,2.03-4.58,4.41-5.52,7.14l-14.43-5.94c.75-2.36,2-4.64,3.75-6.86,1.74-2.21,3.91-4.2,6.51-5.94,2.59-1.74,5.66-3.16,9.19-4.24,3.54-1.08,7.52-1.63,11.95-1.63s8.77.64,12.45,1.91c3.68,1.27,6.79,3.04,9.34,5.31,2.55,2.26,4.5,4.93,5.87,7.99,1.37,3.07,2.05,6.34,2.05,9.83,0,2.55-.35,4.9-1.06,7.07-.71,2.17-1.7,4.13-2.97,5.87-1.27,1.75-2.76,3.28-4.46,4.6-1.7,1.32-3.54,2.5-5.52,3.54,2.26.94,4.41,2.08,6.44,3.4,2.03,1.32,3.79,2.92,5.3,4.81,1.51,1.89,2.69,4.08,3.54,6.58.85,2.5,1.27,5.35,1.27,8.56,0,3.87-.78,7.5-2.33,10.89-1.56,3.4-3.75,6.32-6.58,8.77-2.83,2.45-6.3,4.39-10.4,5.8-4.1,1.41-8.61,2.12-13.51,2.12-4.34,0-8.35-.5-12.02-1.49-3.68-.99-6.91-2.4-9.69-4.24-2.78-1.84-5.16-4.01-7.14-6.51-1.98-2.5-3.44-5.31-4.39-8.42l14.85-5.23Z"/>
        </g>
        <path class="cls-4" d="M236.98,181.43c262.39-3.35,532.18-3.26,794.6-.38,0,0,25.63.38,25.63.38l-25.63.38c-262.43,2.89-532.2,2.97-794.6-.38h0Z"/>
        <g>
          <path class="cls-4" d="M172.28,154.69c-36.35,11.81-75.5,11.81-111.85,0v-47.89c36.35,11.81,75.5,11.81,111.85,0v47.89Z"/>
          <path class="cls-7" d="M81.45,112.25c-7.08-1.39-14.1-3.2-21.02-5.45v47.89c6.92,2.25,13.94,4.06,21.02,5.45v-47.89Z"/>
          <path class="cls-3" d="M172.28,154.69c-36.35,11.81-75.5,11.81-111.85,0v-47.89c36.35,11.81,75.5,11.81,111.85,0v47.89Z"/>
          <path class="cls-5" d="M156.69,174.96l-9.08,20.76c2.27,2.45,5.48,4.02,9.08,4.02s6.81-1.56,9.08-4.02l-9.08-20.76Z"/>
          <polygon class="cls-1" points="116.36 66.44 22.79 104.06 116.36 141.68 209.93 104.06 116.36 66.44"/>
          <polygon class="cls-4" points="116.36 60.69 22.79 98.31 116.36 135.93 209.93 98.31 116.36 60.69"/>
          <polyline class="cls-2" points="116.36 102.35 156.69 125.47 156.69 176.39"/>
          <circle class="cls-1" cx="156.69" cy="180.24" r="5.26"/>
        </g>
      </g>
    </g>
  </g>
</svg>