<?xml version="1.0" encoding="UTF-8"?>
<svg id="Capa_1" data-name="Capa 1" xmlns="http://www.w3.org/2000/svg" viewBox="0 0 1979.73 540">
  <defs>
    <style>
      .cls-1 {
        fill: #fff;
      }

      .cls-2 {
        fill: none;
        stroke: #fff;
        stroke-miterlimit: 10;
        stroke-width: 1.76px;
      }
    </style>
  </defs>
  <path class="cls-2" d="M1899.55,293.44c0,11.45-9.29,20.72-20.74,20.72-9.8,0-18.01-6.79-20.17-15.95h13.47c1.47,2.1,3.93,3.46,6.7,3.46,4.56,0,8.25-3.67,8.25-8.23s-3.69-8.23-8.25-8.23c-3.04,0-5.71,1.65-7.13,4.12h-13.2c1.92-9.48,10.29-16.63,20.32-16.63,11.45,0,20.74,9.29,20.74,20.74Z"/>
  <g>
    <path class="cls-1" d="M777.45,240.1c-5.46,21.67-21.65,37.73-50.66,37.73-37.91,0-56.79-28.38-56.79-63.85s19.01-64.9,57.55-64.9c30.28,0,46.34,17.37,49.92,38.32h-18.6c-4.13-12.89-12.73-23.07-32.02-23.07-26.64,0-37.44,24.18-37.44,49.05s10.12,49.18,38.16,49.18c19.01,0,26.94-11.22,31.2-22.48h18.68Z"/>
    <path class="cls-1" d="M915.41,212.9c0,34.55-19.64,65.13-59.35,65.13-37.35,0-57.94-28.53-57.94-64.47s21.34-64.47,59.45-64.47c35.55,0,57.84,26.35,57.84,63.81ZM817.53,213.01c0,26.59,13.27,49.35,39.32,49.35,28.15,0,39.16-23.26,39.16-49.2s-12.48-48.41-39.21-48.41-39.27,21.97-39.27,48.26Z"/>
    <path class="cls-1" d="M943.73,276.22v-125.33h24.2c17.54,29.09,54.71,89.23,61.5,102.86h.26c-1.25-15.52-1.15-35.66-1.15-56.15v-46.71h17.39v125.33h-22.79c-15.98-26.69-55.1-92.1-62.65-106.24h-.26c.9,13.65.97,35.75.97,58.33v47.9h-17.47Z"/>
    <path class="cls-1" d="M1081.96,150.89h81.84v15.75h-63.57v38.78h59.58v15.75h-59.58v55.05h-18.27v-125.33Z"/>
    <path class="cls-1" d="M1206.31,150.89v125.33h-18.6v-125.33h18.6Z"/>
    <path class="cls-1" d="M1260.16,240.26l-12.78,35.96h-18.45l44.24-125.33h23.03l46.15,125.33h-19.75l-13.22-35.96h-49.21ZM1304.82,224.51c-11.37-31.71-17.77-49.1-20.54-58.98h-.18c-3.07,10.96-10.2,31.86-19.36,58.98h40.08Z"/>
    <path class="cls-1" d="M1364.01,276.22v-125.33h24.2c17.54,29.09,54.71,89.23,61.5,102.86h.26c-1.25-15.52-1.15-35.66-1.15-56.15v-46.71h17.39v125.33h-22.79c-15.98-26.69-55.1-92.1-62.65-106.24h-.26c.9,13.65.97,35.75.97,58.33v47.9h-17.47Z"/>
    <path class="cls-1" d="M1490.38,262.11l74.87-95.48h-71.2v-15.75h92.59v15.37l-73.43,94.21h76.04l-2.53,15.75h-96.34v-14.11Z"/>
    <path class="cls-1" d="M1632.81,240.26l-12.78,35.96h-18.45l44.24-125.33h23.03l46.15,125.33h-19.75l-13.22-35.96h-49.21ZM1677.46,224.51c-11.37-31.71-17.77-49.1-20.54-58.98h-.18c-3.07,10.96-10.2,31.86-19.36,58.98h40.08Z"/>
  </g>
  <g>
    <path class="cls-1" d="M1736.76,235.27v39.24h-5.82v-39.24h5.82Z"/>
    <path class="cls-1" d="M1748.06,235.27h15.15c7.77,0,13.08,4.35,13.08,11.56,0,7.81-5.69,11.84-13.37,11.84h-9v15.85h-5.86v-39.24ZM1753.91,253.84h8.59c5.1,0,7.81-2.41,7.81-6.87s-3.19-6.87-7.61-6.87h-8.79v13.74Z"/>
    <path class="cls-1" d="M1787.7,263.48c1.03,4.56,4.18,6.95,9.65,6.95,5.82,0,8.15-2.67,8.15-6.22,0-3.8-1.93-5.85-9.58-7.69-9.52-2.3-12.62-5.6-12.62-11.07,0-6.02,4.45-10.75,13.31-10.75,9.55,0,13.45,5.44,13.99,10.7h-5.91c-.65-3.29-2.67-6.11-8.27-6.11-4.53,0-7.09,2.01-7.09,5.57s2.11,4.89,8.89,6.52c11.23,2.72,13.31,7.05,13.31,12.18,0,6.49-4.83,11.44-14.57,11.44s-14.33-5.3-15.16-11.54h5.91Z"/>
  </g>
  <g>
    <g>
      <path class="cls-1" d="M728.04,363.38h-3.31c-.17-.96-.38-4.25-.37-5.98-2.52,4.35-6.47,6.77-13.84,6.77-11.66,0-18.98-7.56-18.98-19.31,0-10.97,7.53-19.47,19.67-19.47,10.91,0,15.56,5.44,17.06,10.95h-4.38c-1.63-3.93-5.17-7.33-12.73-7.33-9.79,0-15.17,6.88-15.17,15.6,0,9.18,5.41,15.93,14.98,15.93,8.19,0,13.02-4.14,13.02-12.28v-1.26h-12.91v-3.69h16.96v20.08Z"/>
      <path class="cls-1" d="M786.91,345.59h-22.75v14.13h25.05l-.61,3.65h-28.63v-37.21h28.13v3.65h-23.94v12.12h22.75v3.65Z"/>
      <path class="cls-1" d="M820.43,352.65c1.43,4.68,4.8,8.01,12.45,8.01s10.87-3.14,10.87-6.9c0-3.97-2.14-6.45-12.23-8.14-10.7-1.81-13.47-5.13-13.47-10.21,0-6.29,5.95-10.01,13.85-10.01,11.91,0,14.59,6.27,15.01,9.87h-4.28c-.82-2.73-2.5-6.33-10.82-6.33-5.65,0-9.46,1.96-9.46,6.06,0,3.29,1.52,5.45,10.38,6.92,13.23,2.21,15.38,6.35,15.38,11.43,0,5.78-4.63,10.82-15.46,10.82-10.04,0-15.3-4.61-16.53-11.5h4.32Z"/>
      <path class="cls-1" d="M887.65,329.85h-14.49v-3.69h33.21v3.69h-14.49v33.52h-4.23v-33.52Z"/>
      <path class="cls-1" d="M969.5,344.66c0,10.57-7.18,19.5-19.36,19.5s-19.38-8.6-19.38-19.53c0-10.35,7.7-19.25,19.46-19.25s19.28,8.91,19.28,19.28ZM935.21,344.48c0,8.28,5.26,16.02,15.02,16.02s14.82-7.08,14.82-15.73c0-8.02-5.32-15.72-15.14-15.72-9.08,0-14.7,7.13-14.7,15.43Z"/>
      <path class="cls-1" d="M1004.41,346.86v16.51h-4.17v-37.21h17.07c7.36,0,12.51,3.28,12.51,9.95,0,4.41-2.08,7.7-6.89,8.89,2.71.71,5.91,2.68,5.91,9.14v1.57c0,2.94,0,6.15.43,7.66h-4.28c-.54-1.62-.42-4.62-.42-7.51v-1.25c0-5.98-2.34-7.75-9.17-7.75h-10.98ZM1004.41,343.25h11.76c6.21,0,9.34-2.17,9.34-6.96,0-4.38-3.13-6.51-9.11-6.51h-11.99v13.47Z"/>
      <path class="cls-1" d="M1088.55,345.59h-22.76v14.13h25.05l-.62,3.65h-28.63v-37.21h28.13v3.65h-23.94v12.12h22.76v3.65Z"/>
      <path class="cls-1" d="M1122.07,352.65c1.43,4.68,4.8,8.01,12.45,8.01s10.87-3.14,10.87-6.9c0-3.97-2.15-6.45-12.23-8.14-10.7-1.81-13.47-5.13-13.47-10.21,0-6.29,5.95-10.01,13.86-10.01,11.91,0,14.59,6.27,15.01,9.87h-4.28c-.82-2.73-2.5-6.33-10.82-6.33-5.64,0-9.46,1.96-9.46,6.06,0,3.29,1.52,5.45,10.38,6.92,13.23,2.21,15.38,6.35,15.38,11.43,0,5.78-4.63,10.82-15.47,10.82-10.04,0-15.3-4.61-16.53-11.5h4.32Z"/>
    </g>
    <g>
      <path class="cls-1" d="M1235.55,345.59h-22.75v14.13h25.05l-.61,3.65h-28.63v-37.21h28.13v3.65h-23.94v12.12h22.75v3.65Z"/>
      <path class="cls-1" d="M1267.95,363.38v-37.21h5.04c7.78,10.44,21.95,28.4,23.99,32.06h.1c-.32-5.1-.27-10.67-.27-16.69v-15.37h3.97v37.21h-4.8c-6.1-7.96-21.45-28.47-24.24-32.83h-.1c.27,4.84.27,10.11.27,16.69v16.14h-3.97Z"/>
    </g>
    <g>
      <path class="cls-1" d="M1359.6,352.65c1.43,4.68,4.8,8.01,12.45,8.01s10.87-3.14,10.87-6.9c0-3.97-2.15-6.45-12.23-8.14-10.7-1.81-13.47-5.13-13.47-10.21,0-6.29,5.95-10.01,13.86-10.01,11.91,0,14.59,6.27,15.01,9.87h-4.28c-.82-2.73-2.5-6.33-10.82-6.33-5.64,0-9.46,1.96-9.46,6.06,0,3.29,1.52,5.45,10.38,6.92,13.23,2.21,15.38,6.35,15.38,11.43,0,5.78-4.63,10.82-15.47,10.82-10.04,0-15.3-4.61-16.53-11.5h4.32Z"/>
      <path class="cls-1" d="M1423.86,351.3l-5.24,12.08h-4.41l16.29-37.21h4.91l16.9,37.21h-4.58l-5.45-12.08h-18.41ZM1440.79,347.61c-4.85-10.77-7.12-15.78-7.97-18.21h-.05c-.75,2.34-3.46,8.91-7.46,18.21h15.48Z"/>
      <path class="cls-1" d="M1480.94,326.17h4.15v33.51h22.89l-.68,3.7h-26.36v-37.21Z"/>
      <path class="cls-1" d="M1539.06,326.17v21.18c0,10.27,6.17,13.15,12.12,13.15,7.37,0,11.72-3.54,11.72-13.15v-21.18h4.19v21.02c0,12.33-6.31,16.98-16.08,16.98s-16.14-4.9-16.14-16.51v-21.48h4.19Z"/>
      <path class="cls-1" d="M1600.15,326.17h14.87c11.87,0,18.92,7.75,18.92,18.02,0,11.93-8.29,19.19-19,19.19h-14.79v-37.21ZM1604.34,359.77h9.57c10.58,0,15.56-6.76,15.56-15.45s-6.12-14.53-15.07-14.55h-10.06v30Z"/>
    </g>
  </g>
  <g>
    <path class="cls-1" d="M1887.06,293.44c0,4.56-3.69,8.23-8.25,8.23-2.77,0-5.22-1.35-6.7-3.46h-26.98l-403.76.12-4.63-5.73-3.85,5.73-15.77.02-8.6-29.85c-3.32,7.56-7.85,21.78-10.72,29.77h-759.4l-12.71,191.52-9.05.04c-3.18-89.68.43-252.22-1.73-341.89-1.65,3.87-10.84,153.94-11.86,153.94h-120.53c.77-13.51,3.16-24.84-.49-38.37-5.32-19.7-25.49-25.04-52.08-21.27.26-.75-.22-4.32-.5-7.89,6.54-1.18,17.53-1.37,24.15-1.35s12.75.36,18.59,2.9c5.84,2.54,10.62,6.93,13.89,12.37,4.91,8.21,7.32,17.65,7.32,27.22v17.36h101.49c2.91-34.6,6.44-69.32,9.05-103.94,1.39-18.48,3.99-82.52,6.28-107.5h8.78c2.91,42.36,4.28,148.26,4.97,183.34.45,23.8-.33,73.72.12,97.5l5.24-73.01h761.22l17.22-45.15c2.65,2.14,14.12,41.77,17.75,45.4.51.53,4.44.92,5.56-.29,1.81-1.96,4.06-6.83,5.66-9.03,2.63,4.28,4.81,9.27,10.8,9.15l397.52.02h26.63c1.41-2.47,4.08-4.12,7.13-4.12,4.56,0,8.25,3.67,8.25,8.23Z"/>
    <path class="cls-1" d="M273.95,242.11c13.19-45.67,59.74-39.63,59.6-36.2-13.21-.51-24.62,4.58-31.7,9.72-6.42,4.66-11.64,10.94-14.89,18.19-3.61,8.07-3.82,16.24-3.82,24.93v48.55l-85.26.73-19.84,95.04-16.42-93.86-119.53-7.31,125.73-3.4c1.91,2.22,8.92,41.18,11.13,44.27,2.22-12.97,6.57-34.07,9.04-46.31h86.09c-.23-11.42-4.47-39.34-.13-54.35Z"/>
    <path class="cls-1" d="M429.94,242.24c-.9-11.33-4.89-28.19-8.31-38.8-7.94-24.67-56.95-25.33-72.46-4.69-10.43,13.86-8.97,60.72-11.61,60.39-.22-4.49-.44-8.98-.65-13.47-.36-7.33-.71-14.66-1.07-21.99-.32-6.57-.06-13.21,1.84-19.55,1.47-4.93,4.27-9.49,7.71-13.28,6.26-6.91,14.86-11.42,23.85-13.63,7.8-1.9,15.93-2.28,23.88-1.43,4.79.49,9.54,1.26,14.12,2.81.22.08.43.16.63.24,7.54,3.02,14.94,7.78,19.14,14.93,4.84,8.23,4.49,18.38,4.56,27.5.01,1.45-.72,21.04-1.63,21Z"/>
  </g>
  <path class="cls-2" d="M1912.82,293.44c0,18.77-15.22,34.01-34.01,34.01-17.16,0-31.36-12.73-33.68-29.24h26.98c1.47,2.1,3.93,3.46,6.7,3.46,4.56,0,8.25-3.67,8.25-8.23s-3.69-8.23-8.25-8.23c-3.04,0-5.71,1.65-7.13,4.12h-26.63c2.02-16.85,16.38-29.91,33.76-29.91,18.79,0,34.01,15.22,34.01,34.01Z"/>
  <path class="cls-1" d="M319.06,147.76c-14.01,0-25.36,11.36-25.36,25.36s11.36,25.36,25.36,25.36,25.37-11.36,25.37-25.36-11.36-25.36-25.37-25.36ZM324,193.51c-11.26,0-20.39-9.13-20.39-20.39s9.13-20.39,20.39-20.39,20.38,9.13,20.38,20.39-9.12,20.39-20.38,20.39Z"/>
  <path class="cls-1" d="M383.73,113.23c-15.51,0-28.09,12.58-28.09,28.09s12.58,28.09,28.09,28.09,28.09-12.58,28.09-28.09-12.58-28.09-28.09-28.09ZM389.21,163.89c-12.47,0-22.58-10.11-22.58-22.58s10.11-22.58,22.58-22.58,22.57,10.11,22.57,22.58-10.11,22.58-22.57,22.58Z"/>
  <path class="cls-1" d="M456.22,189.63c-9.23,0-16.71,7.48-16.71,16.71s7.48,16.71,16.71,16.71,16.71-7.48,16.71-16.71-7.48-16.71-16.71-16.71ZM459.48,219.77c-7.42,0-13.43-6.01-13.43-13.43s6.01-13.43,13.43-13.43,13.43,6.01,13.43,13.43-6.01,13.43-13.43,13.43Z"/>
</svg>